<svg width="301" height="138" fill="none" xmlns="http://www.w3.org/2000/svg"><g clip-path="url(#clip0_2638_35868)" fill="#de786b"><path d="M63.945 15.334a.701.701 0 01-.633-.396c-.376-.775-.523-1.55-.447-2.3.398-3.83 6.37-5.738 10.732-7.132 4.603-1.47 9.479-2.317 14.485-2.512.37-.027.714.282.73.673a.704.704 0 01-.676.727c-4.88.19-9.625 1.008-14.108 2.44-3.539 1.134-9.467 3.027-9.767 5.951-.049.494.055 1.014.317 1.557a.697.697 0 01-.328.933.68.68 0 01-.305.07v-.01zm78.656 4.28h-.082a18.807 18.807 0 01-3.354-.7c-1.456-.444-2.541-.987-2.999-1.215l-.153-.076a195.088 195.088 0 00-15.231-6.568c-4.728-1.801-8.469-3.228-13.498-4.475a85.647 85.647 0 00-16.332-2.393.699.699 0 11.07-1.394 86.792 86.792 0 0116.606 2.436c5.115 1.27 8.884 2.707 13.661 4.524a197.007 197.007 0 0115.34 6.612l.169.081c.469.234 1.445.722 2.787 1.134a17.41 17.41 0 003.103.646.696.696 0 01-.082 1.388h-.005z"/><path d="M76.925 27.707a.756.756 0 01-.322-.076 91.723 91.723 0 01-4.712-2.598c-.452-.271-1.297-.77-2.388-1.503a30.346 30.346 0 01-1.064-.737 46.149 46.149 0 01-3.833-3.043c-.033-.033-.066-.065-.093-.103a12.13 12.13 0 00-.273-.331c-1.232-1.486-2.394-3.032-1.908-4.139.152-.352.529-.781 1.434-.83a.7.7 0 11.082 1.394 1.1 1.1 0 00-.23.033c0 .25.257.906 1.708 2.652.109.13.196.239.261.32a46.303 46.303 0 003.67 2.908c.366.26.71.493 1.031.716 1.058.71 1.882 1.198 2.323 1.464a92.41 92.41 0 004.636 2.555c.343.18.48.597.3.944a.708.708 0 01-.622.38v-.006zm27.96 4.074c-6.86 0-13.448-.77-13.53-.781a113.399 113.399 0 01-12.407-2.257.697.697 0 11.328-1.356c4.04.971 8.163 1.72 12.248 2.224.087.011 9.363 1.096 17.282.673a55.55 55.55 0 007.4-.895c1.096-.206 1.691-.353 4.183-.955l3.016-.732c.987-.239 1.848-.456 2.612-.646 2.279-.57 3.784-.949 5.246-1.052a21.687 21.687 0 016.555.553.694.694 0 01.518.841.696.696 0 01-.845.515 20.47 20.47 0 00-6.13-.515c-1.341.092-2.721.44-5.001 1.015-.769.195-1.636.412-2.623.65l-3.016.733c-2.459.596-3.119.76-4.253.97a58.23 58.23 0 01-7.586.917c-1.314.07-2.661.098-3.997.098zm39.925-12.118a.705.705 0 01-.671-.494.697.697 0 01.463-.873c1.637-.499 10.166-3.048 17.195-4.079 3.43-.504 5.944-.553 8.682-.174.894.125 1.789.299 2.661.51a.7.7 0 11-.338 1.356c-.823-.2-1.674-.363-2.525-.482-2.596-.364-4.995-.315-8.284.168-6.925 1.02-15.367 3.536-16.987 4.036a.687.687 0 01-.207.032h.011zm20.199 25.386c-.049 0-.098 0-.147-.017-3.142-.672-8.486-3.26-10.438-5.044-1.685-1.253-3.032-2.246-4.178-3.092-3.964-2.924-5.606-4.128-10.814-8.489a.7.7 0 01-.087-.982.708.708 0 01.987-.087c5.175 4.329 6.806 5.533 10.749 8.435 1.156.852 2.514 1.85 4.215 3.12.022.015.038.032.06.048 1.756 1.627 6.888 4.1 9.806 4.725.381.081.621.45.539.83a.703.703 0 01-.687.553h-.005z"/><path d="M165.009 45.049a.704.704 0 01-.513-.223c-1.827-1.936-4.172-5.196-4.952-9.73-.234-1.357-.779-4.53.502-8.137 1.173-3.293 3.218-5.197 5.584-7.404a31.856 31.856 0 017.024-4.942.705.705 0 01.949.293.697.697 0 01-.294.944 30.45 30.45 0 00-6.713 4.724c-2.324 2.165-4.161 3.879-5.219 6.851-1.162 3.266-.66 6.19-.442 7.437.72 4.193 2.896 7.214 4.592 9.01a.693.693 0 01-.033.987.717.717 0 01-.48.19h-.005zm-9.801-21.822a.685.685 0 01-.545-.26.695.695 0 01.103-.982 19.086 19.086 0 013.888-2.425 19.414 19.414 0 015.268-1.6.699.699 0 11.213 1.383 17.868 17.868 0 00-8.491 3.738.71.71 0 01-.442.157l.006-.011zm2.874 15.161a.723.723 0 01-.431-.147c-1.516-1.166-4.21-3.678-5.17-7.399-.295-1.15-.916-3.547.169-5.993.153-.342.333-.678.534-.993a.701.701 0 01.971-.206c.327.211.42.64.207.965-.163.25-.31.521-.43.798-.889 2.007-.371 4.008-.093 5.088.856 3.32 3.294 5.587 4.668 6.64a.697.697 0 01.125.98.692.692 0 01-.556.272l.006-.005zM88.89 23.395c-.147 0-.294 0-.447-.01-3.19-.136-5.448-1.666-6.511-2.567a.694.694 0 01-.082-.981.703.703 0 01.987-.082c.927.787 2.895 2.116 5.66 2.235 2.776.114 4.663-1.041 5.912-1.811.681-.424.943-.679 1.03-.792-.207-.234-1.101-.64-4.002-1.156-2.607-.46-5.35-.575-8.153-.336a.696.696 0 11-.12-1.389c2.923-.25 5.791-.13 8.518.353 2.667.472 5.072 1.02 5.186 2.462.055.657-.463 1.27-1.723 2.045-1.249.77-3.3 2.03-6.26 2.03h.005z"/><path d="M76.553 24.41a.713.713 0 01-.616-.359.694.694 0 01.273-.949 16.098 16.098 0 005.339-4.708 15.518 15.518 0 001.821-3.325.703.703 0 01.91-.39c.36.14.535.547.394.905a17.154 17.154 0 01-1.986 3.618c-1.51 2.105-3.463 3.83-5.797 5.12a.698.698 0 01-.338.087zm-6.451-13.86a1.116 1.116 0 011.287-.911 1.111 1.111 0 11-.37 2.191 1.111 1.111 0 01-.917-1.28zm31.467 26.33a26.19 26.19 0 01-3.6-.293 25.81 25.81 0 01-4.76-1.193c-5.672-2.007-8.774-3.738-13.912-6.602a.694.694 0 01-.267-.95.701.701 0 01.955-.265c5.246 2.924 8.136 4.535 13.698 6.504 1.462.515 2.973.895 4.5 1.128a24.98 24.98 0 003.364.277c1.282-.05 1.898-.223 2.176-.347-.343-.234-1.221-.69-3.419-1.378a.696.696 0 11.42-1.33c3.534 1.107 4.728 1.867 4.564 2.892-.207 1.28-2.225 1.503-3.724 1.562l.005-.005z"/><path d="M103.711 33.831c-.436 0-.85-.021-1.243-.043-5.633-.347-10.181-1.54-10.372-1.595a63.489 63.489 0 01-6.32-2.045.7.7 0 01-.404-.9.707.707 0 01.905-.402 62.523 62.523 0 006.179 2.002c.185.049 4.597 1.21 10.094 1.546 1.265.076 2.628.108 4.226-.456a8.959 8.959 0 002.443-1.318.7.7 0 01.982.136.691.691 0 01-.136.976 10.352 10.352 0 01-2.82 1.519c-1.303.46-2.486.58-3.539.58h.005z"/><path d="M126.884 36.88a28 28 0 01-5.458-.537 28.309 28.309 0 01-11.136-4.925.697.697 0 01-.147-.977.706.706 0 01.981-.146 26.833 26.833 0 0010.574 4.68c2.847.57 5.754.663 8.644.288-.109-.933-.425-2.587-1.298-3.78-.251-.342-.665-.912-1.396-1.373-.191-.125-.338-.195-.736-.39l-.278-.136a101.06 101.06 0 01-1.866-.95.697.697 0 01-.294-.943.705.705 0 01.949-.293c.42.223 1.052.548 1.838.933l.272.136c.42.206.611.298.873.466.954.608 1.489 1.335 1.772 1.725 1.358 1.844 1.587 4.421 1.625 5.164a.703.703 0 01-.594.727c-1.44.222-2.885.336-4.33.336l.005-.005zm6.118-22.028c-1.031 0-2.127-.07-3.348-.201a.697.697 0 01-.622-.77.695.695 0 01.774-.619c1.178.125 2.225.19 3.207.196.387 0 .698.314.698.7a.699.699 0 01-.704.694h-.005zm.622-7.925a.758.758 0 01-.218-.033 200.84 200.84 0 01-2.356-.797c-2.165-.743-4.406-1.514-6.729-2.023-10.111-2.045-19.96-2.924-29.263-2.61a.703.703 0 01-.726-.672.699.699 0 01.677-.722c9.407-.32 19.37.565 29.601 2.637 2.415.531 4.689 1.312 6.893 2.072.779.266 1.559.537 2.339.792a.693.693 0 01.447.878.705.705 0 01-.665.483v-.005zM80.06 5.294a.698.698 0 01-.637-.407.698.698 0 01.349-.922 45.391 45.391 0 015.502-2.072 45.495 45.495 0 017.417-1.6.696.696 0 01.785.602.694.694 0 01-.605.781A44.418 44.418 0 0080.35 5.234a.68.68 0 01-.29.066v-.006z"/><path d="M93.966 3.39a.716.716 0 01-.594-.32.698.698 0 01.213-.966c.147-.092.365-.227.632-.38a13.23 13.23 0 015.917-1.67.7.7 0 01.731.667.7.7 0 01-.671.727 11.838 11.838 0 00-5.29 1.486c-.24.136-.43.255-.567.337a.674.674 0 01-.376.108l.005.011zm9.778.613a.7.7 0 01-.589-.32.7.7 0 01.213-.966 16.7 16.7 0 01.632-.38 13.145 13.145 0 013.229-1.28 13.226 13.226 0 012.694-.39.697.697 0 11.06 1.394 11.836 11.836 0 00-5.29 1.486c-.24.136-.431.255-.567.337a.688.688 0 01-.376.108l-.006.011zm9.021 1.269a.715.715 0 01-.594-.32.699.699 0 01.212-.965c.148-.092.366-.228.633-.38a13.312 13.312 0 015.922-1.67.698.698 0 11.06 1.394 11.836 11.836 0 00-5.289 1.486c-.24.135-.431.255-.568.336a.672.672 0 01-.376.109v.01zm13.403 28.798h-.016c-2.399-.06-4.679-.597-6.768-1.606a16.141 16.141 0 01-2.595-1.567.692.692 0 01-.142-.977.7.7 0 01.981-.14 14.493 14.493 0 002.367 1.431c1.909.917 3.992 1.41 6.19 1.465.387.01.692.33.687.716a.704.704 0 01-.704.683v-.005zm-1.264-2.815a.725.725 0 01-.24-.044l-3.997-1.453a.697.697 0 01-.42-.895.705.705 0 01.9-.418l3.997 1.454c.366.13.551.531.42.895a.704.704 0 01-.66.46zm9.958-16.468a.703.703 0 01-.704-.678.7.7 0 01.682-.716c2.645-.076 3.774-.586 3.959-1.812-.501-1.676-1.788-3.038-3.926-4.155a.697.697 0 01-.295-.944.705.705 0 01.949-.293c2.558 1.335 4.085 3.021 4.663 5.153a.786.786 0 01.022.25c-.295 3.048-3.823 3.151-5.328 3.195h-.022zm29.034 113.883a.706.706 0 01-.578-.304c-.316-.461-.49-.949-.518-1.448-.125-2.452 3.278-4.144 5.764-5.381a32.263 32.263 0 018.279-2.777.705.705 0 01.823.553.697.697 0 01-.556.819 31.107 31.107 0 00-7.918 2.653c-1.898.944-5.067 2.522-4.99 4.063.011.238.103.482.272.726a.698.698 0 01-.578 1.096z"/><path d="M173.374 134.968a.642.642 0 01-.202-.033 43.278 43.278 0 01-3.823-1.356 31.084 31.084 0 01-2.23-1.003 28.15 28.15 0 01-2.531-1.443c-.038-.027-.076-.054-.109-.087-.038-.038-.103-.092-.18-.163-.916-.813-1.794-1.681-1.57-2.522.065-.244.278-.673.981-.819a.703.703 0 01.835.537.702.702 0 01-.322.743c.147.195.442.515 1.014 1.02.066.06.126.108.169.152a26.33 26.33 0 004.483 2.3c1.189.488 2.432.933 3.692 1.312a.705.705 0 01.469.874.699.699 0 01-.671.493l-.005-.005z"/><path d="M179.465 135.364c-1.859 0-3.73-.076-5.584-.233a.696.696 0 11.12-1.389c2.427.201 4.881.271 7.296.201.05 0 5.525-.196 10.067-1.145a32.21 32.21 0 004.189-1.172c.61-.217.943-.352 2.339-.927l1.685-.694c.475-.196.895-.375 1.282-.537 1.221-.516 2.105-.89 3.163-1.161a16.383 16.383 0 014.532-.51.707.707 0 01.687.716.7.7 0 01-.72.683 15.338 15.338 0 00-4.145.461c-.96.25-1.799.603-2.966 1.096-.393.168-.818.347-1.298.543l-1.685.694c-1.386.569-1.756.721-2.405.949a34.19 34.19 0 01-4.369 1.221c-4.668.971-10.083 1.166-10.312 1.171a68.65 68.65 0 01-1.87.027l-.006.006zm29.76-11.218h-.027a12.158 12.158 0 01-1.178-.108 11.402 11.402 0 01-1.914-.456l-.082-.027a114.15 114.15 0 00-9.429-2.457c-2.907-.624-5.202-1.118-8.224-1.394a49.62 49.62 0 00-9.663.065.699.699 0 11-.142-1.389 51.642 51.642 0 019.936-.065c3.109.282 5.443.787 8.393 1.421 3.201.689 6.413 1.525 9.549 2.49l.104.033c.261.086.878.282 1.685.401.316.049.638.076.954.092a10.829 10.829 0 001.538-.39c.611-.201 1.041-.407 1.205-.483 1.663-.776 5.492-2.197 8.813-3.152 1.876-.542 3.315-.857 5.11-.884.539-.011 1.09.011 1.625.06.387.033.67.374.638.759a.703.703 0 01-.764.635c-.491-.043-.987-.06-1.483-.054-1.631.021-2.972.32-4.734.83-3.593 1.036-7.247 2.441-8.589 3.064-.202.093-.687.32-1.374.548-.594.196-1.205.347-1.821.456-.039.005-.077.011-.12.011l-.006-.006zm16.163 12.807a.757.757 0 01-.283-.06l-7.744-3.411a61.511 61.511 0 01-4.134-2.268 65.114 65.114 0 01-2.966-1.887.696.696 0 01-.186-.971.704.704 0 01.976-.185c.949.64 1.925 1.264 2.902 1.85a59.841 59.841 0 004.013 2.202l7.711 3.396a.702.702 0 01.36.922.702.702 0 01-.643.418l-.006-.006z"/><path d="M225.388 136.953a.695.695 0 01-.534-.249 19.09 19.09 0 01-3.278-5.479c-.638-1.649-1.139-2.951-.927-4.659.24-1.932 1.254-3.212 2.536-4.834l.109-.141a18.972 18.972 0 013.697-3.552.707.707 0 01.982.146.697.697 0 01-.147.976 17.76 17.76 0 00-3.425 3.293l-.109.141c-1.189 1.508-2.05 2.598-2.247 4.144-.169 1.362.235 2.403.846 3.982.703 1.817 1.728 3.525 3.043 5.082a.695.695 0 01-.535 1.145l-.011.005zm-47.123-5.75c-1.608 0-2.852-.602-3.495-.992a.699.699 0 11.736-1.188c.578.352 1.778.922 3.316.754 1.537-.168 2.486-.977 3.119-1.514.093-.076.164-.146.223-.2-.376-.087-1.025-.141-1.946-.163a18.23 18.23 0 00-4.701.521.707.707 0 01-.851-.516.702.702 0 01.518-.846 19.662 19.662 0 015.066-.564c1.778.043 3.267.163 3.512 1.193.148.63-.376 1.177-.91 1.633-.671.57-1.915 1.622-3.878 1.839a6.44 6.44 0 01-.709.038v.005z"/><path d="M172.054 132.825a.697.697 0 01-.431-1.253 9.17 9.17 0 002.601-3.119c.327-.64.573-1.323.736-2.034a.7.7 0 011.364.315 10.442 10.442 0 01-.851 2.348 10.57 10.57 0 01-2.994 3.597.705.705 0 01-.431.146h.006zm-4.28-6.417h-.022a1.363 1.363 0 01-1.342-1.372 1.345 1.345 0 011.38-1.334c.365 0 .703.151.954.412.251.26.388.602.382.96a1.362 1.362 0 01-1.358 1.334h.006zm-.044-1.356s.016.038.044.044c.021 0 .043-.022.043-.044h-.087zm0 0h.087s-.027-.059-.043-.043a.043.043 0 00-.044.043zM185.66 138c-.977 0-1.953-.092-2.913-.277-3.506-.667-5.475-1.399-8.736-2.614a.696.696 0 01-.409-.901.7.7 0 01.905-.406c3.305 1.231 5.121 1.904 8.508 2.549.878.168 1.75.25 2.666.25.649 0 1.304-.049 1.947-.136.398-.054.764-.179.976-.282-.272-.25-.954-.705-2.35-1.302a.693.693 0 01-.365-.917.7.7 0 01.921-.363c3.141 1.34 3.43 2.197 3.3 2.853-.208 1.025-1.8 1.329-2.28 1.394-.714.098-1.467.147-2.16.152h-.01zm14.387-2.219c-.251 0-.502-.005-.753-.016a16.924 16.924 0 01-7.046-1.909.698.698 0 01-.294-.944.704.704 0 01.949-.293 15.532 15.532 0 006.456 1.747c1.576.07 3.153-.103 4.685-.516-.196-.596-.513-1.258-.944-1.687-.174-.173-.43-.434-.85-.613-.126-.054-.218-.081-.431-.152l-.175-.054a53.166 53.166 0 01-1.177-.385.7.7 0 11.458-1.323c.261.092.659.222 1.145.379l.174.055c.289.092.409.13.578.206a4.104 4.104 0 011.276.906c1.015 1.014 1.397 2.56 1.489 3.01a.698.698 0 01-.474.808 16.754 16.754 0 01-5.061.781h-.005zm2.071-13.37a.708.708 0 01-.703-.668.706.706 0 01.67-.732 17.628 17.628 0 001.855-.174.703.703 0 01.796.586.699.699 0 01-.589.792c-.611.092-1.265.152-1.996.185h-.033v.011z"/><path d="M204.044 122.232a.697.697 0 01-.044-1.394c1.805-.114 2.71-.7 2.787-1.194.07-.455-.557-1.22-2.1-1.833a.698.698 0 11.518-1.297c2.061.814 3.174 2.062 2.967 3.347-.213 1.335-1.74 2.219-4.085 2.365h-.043v.006zm-23.303-4.405a.698.698 0 01-.682-.542.7.7 0 01.529-.836c5.862-1.318 11.779-1.692 17.593-1.112a53.71 53.71 0 014.891.716c.382.076.627.44.557.819a.706.706 0 01-.824.554 54.286 54.286 0 00-4.766-.7c-5.661-.564-11.431-.201-17.14 1.085a.766.766 0 01-.153.016h-.005zm-8.371 3.564a.696.696 0 01-.388-1.28 26.783 26.783 0 016.152-2.973c.245-.081.458-.152.605-.195a.706.706 0 01.878.455.699.699 0 01-.458.874c-.142.043-.338.108-.573.184a25.534 25.534 0 00-5.829 2.821.711.711 0 01-.382.114h-.005z"/><path d="M183.091 117.984a.383.383 0 01-.256-.672c.076-.066.191-.163.332-.277a7.682 7.682 0 011.756-1.025 7.795 7.795 0 011.527-.467.382.382 0 01.453.304.38.38 0 01-.305.45 6.9 6.9 0 00-1.375.418 7.18 7.18 0 00-1.581.922c-.126.098-.229.19-.3.25a.379.379 0 01-.256.097h.005zm3.655-.114a.398.398 0 01-.327-.179.383.383 0 01.115-.531 15.609 15.609 0 012.099-1.123c.475-.211.954-.396 1.44-.559a.394.394 0 01.491.244.392.392 0 01-.246.489 15.522 15.522 0 00-3.037 1.394c-.142.081-.257.157-.333.206a.367.367 0 01-.207.059h.005zm4.619.006a.384.384 0 01-.311-.157.381.381 0 01.082-.537c.082-.06.196-.147.344-.245a11.04 11.04 0 013.233-1.48.385.385 0 11.202.743 9.79 9.79 0 00-1.374.482 10.09 10.09 0 00-1.947 1.112.398.398 0 01-.229.076v.006zm8.926 14.852h-.054l-3.114-.429a.377.377 0 01-.327-.434.382.382 0 01.436-.325l3.114.428c.212.027.36.223.327.434a.386.386 0 01-.382.331v-.005zm20.026-.635a.56.56 0 01-.311-.092 10.428 10.428 0 01-2.47-2.159c-.938-1.123-1.816-2.181-1.702-3.569.12-1.416 1.206-2.316 2.356-3.271.944-.781 2.007-1.4 3.169-1.828a.58.58 0 01.747.336.575.575 0 01-.338.743 9.794 9.794 0 00-2.831 1.633c-1.041.862-1.865 1.546-1.947 2.484-.076.917.589 1.72 1.435 2.734a9.339 9.339 0 002.203 1.926.575.575 0 01-.311 1.063zm17.173-23.623a.7.7 0 01-.681-.531c-.137-.543-.131-1.058.021-1.536.742-2.343 4.527-2.75 7.286-3.043a32.368 32.368 0 018.731.266.699.699 0 11-.229 1.378 30.855 30.855 0 00-8.349-.255c-2.105.228-5.633.608-6.097 2.078a1.432 1.432 0 000 .775.698.698 0 01-.682.868z"/><path d="M244.164 117.653a.727.727 0 01-.425-.141 41.011 41.011 0 01-3.108-2.598 28.68 28.68 0 01-1.74-1.714 27.965 27.965 0 01-1.865-2.229.882.882 0 01-.071-.12c-.022-.049-.06-.119-.109-.211-.578-1.08-1.096-2.197-.589-2.913.147-.206.496-.532 1.205-.429a.703.703 0 01.595.792.7.7 0 01-.562.586c.065.233.234.635.594 1.313.044.076.077.146.104.195a26.302 26.302 0 003.397 3.705 41.125 41.125 0 003.005 2.511.692.692 0 01.131.977.705.705 0 01-.556.276h-.006z"/><path d="M279.137 124.439a.74.74 0 01-.262-.049 15.035 15.035 0 00-4.046-1.003c-.987-.098-1.903-.06-3.169 0-.425.022-.888.038-1.401.06l-1.827.065c-1.494.054-1.892.07-2.579.054a34.688 34.688 0 01-4.521-.374c-4.712-.706-9.86-2.403-10.078-2.479a67.318 67.318 0 01-6.92-2.778.698.698 0 01-.339-.927.706.706 0 01.933-.336 64.483 64.483 0 006.768 2.717c.049.016 5.246 1.73 9.837 2.419 1.418.212 2.88.331 4.336.358.649.011 1.003 0 2.509-.054l1.832-.065c.507-.016.965-.038 1.39-.06 1.326-.059 2.285-.103 3.371.006 1.478.146 2.966.515 4.428 1.096a.695.695 0 01-.262 1.345v.005zm21.158-2.739a.732.732 0 01-.299-.065 13.485 13.485 0 00-1.369-.564c-1.538-.548-2.896-.733-4.728-.868-3.73-.277-7.651-.223-9.124-.103-.223.016-.763.065-1.483.038a12.759 12.759 0 01-1.865-.206.617.617 0 01-.142-.044c-.365-.152-.72-.325-1.063-.51a10.906 10.906 0 01-1.631-1.09l-.071-.054a114.399 114.399 0 00-7.978-5.571c-2.503-1.595-4.483-2.853-7.221-4.16a50.312 50.312 0 00-9.079-3.293.696.696 0 01-.502-.852.7.7 0 01.856-.499c3.228.83 6.37 1.969 9.336 3.385 2.814 1.345 4.827 2.62 7.368 4.242a114.465 114.465 0 018.076 5.641l.088.065c.218.169.719.57 1.434.96.278.152.567.293.861.418a11.008 11.008 0 002.88.136c1.832-.152 5.917-.152 9.363.103 1.953.146 3.409.342 5.099.944.513.179 1.015.39 1.5.618.349.168.496.58.333.933a.7.7 0 01-.633.396h-.006zm-8.069 15.85a.695.695 0 01-.491-.201l-6.064-5.88a62.808 62.808 0 01-5.203-6.357.698.698 0 011.14-.808 64.069 64.069 0 002.073 2.739 61.926 61.926 0 002.988 3.455l6.037 5.858a.701.701 0 01-.491 1.199l.011-.005z"/><path d="M292.225 137.55a.704.704 0 01-.66-.461 19.063 19.063 0 01-1.15-6.276c-.022-1.769-.033-3.163.763-4.687.905-1.725 2.301-2.576 4.068-3.65l.153-.093a19.13 19.13 0 014.712-2.05.699.699 0 01.867.477.695.695 0 01-.48.863 17.507 17.507 0 00-4.363 1.898l-.152.092c-1.647 1.004-2.836 1.725-3.556 3.109-.638 1.215-.622 2.332-.605 4.024a17.784 17.784 0 001.068 5.821.7.7 0 01-.425.895.715.715 0 01-.234.043l-.006-.005zm-40.214-21.377c-.469 0-.976-.055-1.51-.185-1.909-.477-3.076-1.676-3.605-2.354a.696.696 0 01.12-.982.706.706 0 01.987.12c.42.531 1.341 1.48 2.841 1.855 1.5.374 2.678-.055 3.452-.337.115-.043.207-.076.284-.114-.322-.211-.917-.488-1.773-.824a18.206 18.206 0 00-4.586-1.139.698.698 0 01-.616-.776.696.696 0 01.78-.613c1.739.206 3.408.619 4.946 1.232 1.652.656 3.005 1.285 2.874 2.332-.077.64-.764.971-1.429 1.21-.594.217-1.56.569-2.77.569l.005.006z"/><path d="M243.679 115.191a.698.698 0 01-.212-1.362 9.227 9.227 0 003.533-2.023 9.081 9.081 0 001.407-1.649.706.706 0 01.971-.201.697.697 0 01.202.966 10.483 10.483 0 01-1.62 1.904 10.665 10.665 0 01-4.068 2.332.716.716 0 01-.213.033zm-1.532-7.459a1.353 1.353 0 01-1.265-1.844 1.365 1.365 0 011.761-.77 1.354 1.354 0 01.775 1.752 1.348 1.348 0 01-.72.748c-.175.076-.36.114-.545.114h-.006zm-.044-1.367c-.01.022 0 .049.028.055.016.005.049-.006.054-.028l-.082-.032v.005zm0 0l.082.033s0-.049-.027-.054c-.022-.006-.049.005-.055.027v-.006zm15.417 19.078c-.452 0-.867-.076-1.069-.12a14.676 14.676 0 01-2.055-.602 15.46 15.46 0 01-2.651-1.274c-3.054-1.839-4.641-3.212-7.275-5.479a.695.695 0 01-.071-.987.704.704 0 01.993-.071c2.667 2.295 4.134 3.564 7.084 5.343a14.25 14.25 0 002.41 1.161c.606.222 1.238.407 1.871.548.393.087.78.098 1.014.07-.163-.33-.649-.992-1.745-2.034a.698.698 0 01-.022-.987.708.708 0 01.993-.022c2.47 2.349 2.443 3.25 2.088 3.819-.316.505-.965.64-1.554.64l-.011-.005zm16.169 3.2h-.033a16.854 16.854 0 01-5.72-1.296 16.851 16.851 0 01-5.934-4.231.7.7 0 111.047-.933 15.521 15.521 0 005.438 3.878 15.23 15.23 0 004.569 1.139c.022-.537-.01-1.291-.294-1.904-.104-.222-.256-.553-.578-.873-.098-.092-.175-.152-.349-.288l-.147-.113a44.165 44.165 0 01-.966-.771.695.695 0 01-.098-.982.704.704 0 01.987-.097c.213.173.54.439.944.748l.142.114c.239.185.338.266.469.391.512.499.758 1.036.878 1.291.594 1.296.414 2.88.343 3.336a.7.7 0 01-.692.591h-.006zm3.686-12.291c-.049 0-.098 0-.147-.017-.6-.124-1.238-.298-1.936-.52a.7.7 0 11.431-1.329c.654.206 1.243.368 1.799.482a.699.699 0 01-.147 1.384z"/><path d="M279.339 116.677c-.644 0-1.369-.114-2.165-.353a.697.697 0 11.403-1.334c1.735.515 2.787.282 3.032-.152.23-.401-.092-1.34-1.325-2.441a.698.698 0 01-.054-.987.708.708 0 01.992-.054c1.647 1.475 2.253 3.032 1.609 4.166-.431.759-1.314 1.155-2.492 1.155zm-1.32-5.207a.697.697 0 01-.365-.103 53.119 53.119 0 00-4.221-2.306c-5.11-2.49-10.639-4.149-16.447-4.925a.695.695 0 01-.6-.787.7.7 0 01.791-.596c5.955.797 11.632 2.5 16.878 5.055a51.609 51.609 0 014.335 2.371c.333.2.437.629.235.96a.702.702 0 01-.6.336l-.006-.005zm-30.038-6.889a.693.693 0 01-.682-.543.7.7 0 01.529-.835 27.502 27.502 0 013.458-.553c1.107-.103 2.23-.141 3.348-.103.262.005.48.016.638.027a.701.701 0 01.665.732.703.703 0 01-.736.662l-.605-.027c-1.058-.033-2.127 0-3.174.103a25.617 25.617 0 00-3.278.52.764.764 0 01-.158.017h-.005z"/><path d="M259.112 105.085a.384.384 0 01-.136-.743 7.608 7.608 0 012.416-.494 7.942 7.942 0 011.598.093.384.384 0 01.321.439.39.39 0 01-.441.32 7.056 7.056 0 00-3.24.239c-.152.049-.278.097-.365.13a.416.416 0 01-.136.027l-.017-.011zm3.468 1.161a.384.384 0 01-.082-.759c.093-.022.235-.049.404-.082a16.616 16.616 0 013.506-.271.388.388 0 01.377.396c-.006.211-.197.363-.399.374a16.874 16.874 0 00-1.472.022 14.824 14.824 0 00-2.247.309.376.376 0 01-.082.011h-.005zm4.326 1.606a.385.385 0 01-.109-.754c.098-.027.234-.065.409-.109a10.344 10.344 0 011.979-.287 10.732 10.732 0 011.565.027.382.382 0 01.35.418.39.39 0 01-.42.347 9.959 9.959 0 00-1.456-.022 9.815 9.815 0 00-1.838.271c-.158.038-.289.076-.377.098a.369.369 0 01-.109.016l.006-.005zm3.163 17.016a.404.404 0 01-.186-.049l-2.765-1.481a.39.39 0 01-.158-.521.395.395 0 01.524-.157l2.765 1.481a.39.39 0 01.158.52.38.38 0 01-.338.201v.006zm19.063 6.363a.575.575 0 01-.463-.228 10.41 10.41 0 01-1.56-2.881c-.485-1.372-.938-2.674-.344-3.932.611-1.286 1.942-1.758 3.354-2.251a11.012 11.012 0 013.61-.619c.322 0 .579.255.579.575 0 .32-.257.575-.579.581-1.107 0-2.192.19-3.222.553-1.282.45-2.291.803-2.694 1.654-.393.836-.05 1.818.387 3.065.321.917.79 1.779 1.39 2.566a.575.575 0 01-.458.927v-.01zM159.365 61.517a.773.773 0 01-.638-.336c-.426-.613-.655-1.258-.687-1.92-.169-3.298 4.526-5.63 7.951-7.334 3.583-1.78 7.465-3.08 11.534-3.867a.77.77 0 01.905.607.766.766 0 01-.611.9c-3.932.76-7.684 2.018-11.136 3.733-2.699 1.345-7.215 3.59-7.1 5.885.016.369.158.748.42 1.128.24.353.153.83-.202 1.069a.755.755 0 01-.436.135z"/><path d="M172.627 70.332a.767.767 0 01-.223-.033 59.684 59.684 0 01-5.334-1.893c-.752-.31-1.783-.732-3.108-1.4a38.964 38.964 0 01-3.529-2.012c-.043-.027-.081-.06-.12-.092-.054-.054-.147-.136-.256-.233-1.238-1.096-2.421-2.257-2.138-3.325.077-.293.339-.814 1.211-.998a.771.771 0 01.916.59.766.766 0 01-.556.901c.147.271.567.765 1.592 1.682.099.087.18.163.246.217a37.892 37.892 0 003.326 1.893 39.325 39.325 0 003 1.35 58.11 58.11 0 005.191 1.845.767.767 0 01.513.96.78.78 0 01-.742.548h.011z"/><path d="M181.151 70.885c-2.595 0-5.208-.108-7.798-.325a.767.767 0 11.131-1.53c3.408.287 6.849.38 10.236.282.071 0 7.749-.277 14.13-1.605a46.588 46.588 0 005.889-1.644c.862-.304 1.326-.494 3.278-1.297l2.367-.97c.66-.272 1.248-.521 1.794-.749 1.707-.721 2.939-1.237 4.406-1.622 1.996-.52 4.107-.754 6.288-.705.425.01.763.363.753.787-.011.423-.382.748-.791.748a21.213 21.213 0 00-5.857.656c-1.358.353-2.547.857-4.194 1.546-.545.234-1.14.483-1.805.754l-2.367.971c-1.93.798-2.448 1.01-3.354 1.324a47.673 47.673 0 01-6.091 1.698c-6.517 1.356-14.321 1.632-14.402 1.638a84.15 84.15 0 01-2.618.038l.005.005zm41.669-15.698h-.032a14.697 14.697 0 01-1.625-.152 15.2 15.2 0 01-2.645-.629l-.12-.038a160.407 160.407 0 00-13.219-3.444c-4.074-.88-7.297-1.568-11.54-1.959a70.503 70.503 0 00-13.573.087.77.77 0 11-.164-1.53 72.32 72.32 0 0113.874-.092c4.335.396 7.596 1.096 11.724 1.986 4.472.96 8.966 2.132 13.35 3.477l.142.043c.371.12 1.244.401 2.389.57.458.065.921.114 1.385.13.747-.13 1.489-.315 2.209-.553.861-.288 1.477-.575 1.712-.684 2.318-1.08 7.667-3.065 12.303-4.4 2.612-.753 4.608-1.192 7.095-1.225.752-.01 1.51.016 2.252.081a.77.77 0 11-.136 1.535 22.478 22.478 0 00-2.1-.075c-2.307.032-4.199.45-6.686 1.166-5.044 1.453-10.176 3.428-12.057 4.301-.278.13-.955.445-1.904.76a17.84 17.84 0 01-2.519.629c-.044.005-.087.01-.131.01l.016.006zm22.632 17.928a.782.782 0 01-.311-.066L234.3 68.276a89.253 89.253 0 01-5.77-3.162 91.092 91.092 0 01-4.144-2.642.764.764 0 01-.202-1.069.769.769 0 011.074-.2 87.351 87.351 0 009.707 5.684l10.803 4.757a.767.767 0 01-.316 1.47z"/><path d="M245.451 73.115a.774.774 0 01-.589-.272c-1.968-2.321-3.501-4.882-4.553-7.61-.884-2.284-1.576-4.085-1.287-6.422.332-2.648 1.734-4.421 3.506-6.667l.153-.195a26.338 26.338 0 015.137-4.936.777.777 0 011.08.162.766.766 0 01-.164 1.074 24.83 24.83 0 00-4.837 4.65l-.153.194c-1.69 2.137-2.912 3.683-3.19 5.907-.245 1.953.327 3.434 1.194 5.68.993 2.57 2.438 4.985 4.298 7.17a.77.77 0 01-.589 1.265h-.006zm-65.974-8.05c-2.203 0-3.904-.825-4.782-1.362a.763.763 0 01-.251-1.058.768.768 0 011.063-.249c.835.51 2.563 1.329 4.772 1.085 2.214-.244 3.577-1.405 4.483-2.17a5.2 5.2 0 00.567-.542c-.365-.141-1.216-.282-3.109-.331-2.165-.049-4.4.195-6.636.738a.768.768 0 11-.366-1.492 27.166 27.166 0 017.041-.781c2.312.054 4.411.211 4.722 1.508.148.618-.202 1.22-1.21 2.077-.982.836-2.629 2.23-5.317 2.528a8.59 8.59 0 01-.971.054l-.006-.005z"/><path d="M170.779 67.337a.773.773 0 01-.61-.298.766.766 0 01.136-1.08 13.062 13.062 0 003.703-4.436c.463-.912.818-1.888 1.052-2.892a.774.774 0 01.927-.575c.415.098.677.51.578.923a14.258 14.258 0 01-1.177 3.238c-.977 1.93-2.367 3.596-4.134 4.958a.775.775 0 01-.475.162zm-5.989-8.987h-.027a1.689 1.689 0 01-1.669-1.71 1.688 1.688 0 011.696-1.659h.022a1.69 1.69 0 011.669 1.709 1.688 1.688 0 01-1.696 1.66h.005zm0-1.834a.146.146 0 00-.147.147c0 .048.022.086.043.103a.143.143 0 00.104.043.16.16 0 00.153-.146.155.155 0 00-.148-.152l-.005.005zm25.043 18.063a21.92 21.92 0 01-4.041-.38c-4.892-.933-7.64-1.953-12.199-3.65a.768.768 0 01-.453-.988.776.776 0 01.992-.45c4.636 1.725 7.188 2.674 11.949 3.58a20.23 20.23 0 003.746.353h.022c.916 0 1.843-.065 2.754-.195.769-.109 1.429-.375 1.663-.554-.223-.293-1.112-1.025-3.533-2.061a.765.765 0 01-.404-1.009.772.772 0 011.014-.401c4.281 1.828 4.652 2.972 4.494 3.764-.267 1.335-2.563 1.725-3.016 1.79a22.68 22.68 0 01-2.966.212h-.028l.006-.011zm20.139-3.109c-.349 0-.698-.004-1.047-.02a23.497 23.497 0 01-9.772-2.648.761.761 0 01-.322-1.036.77.77 0 011.041-.32 22.027 22.027 0 009.124 2.474 21.711 21.711 0 006.833-.787c-.224-.743-.665-1.882-1.434-2.652-.24-.24-.633-.635-1.254-.906a5.371 5.371 0 00-.628-.217l-.24-.076a72.044 72.044 0 01-1.641-.543.768.768 0 01-.48-.976.777.777 0 01.982-.477c.371.124.921.314 1.608.531l.24.076c.366.114.546.174.791.277.884.39 1.429.933 1.718 1.22 1.38 1.378 1.903 3.493 2.029 4.106a.771.771 0 01-.524.89 23.286 23.286 0 01-7.018 1.09l-.006-.005zm2.901-18.718a.775.775 0 01-.774-.733.77.77 0 01.736-.802 26.914 26.914 0 002.618-.24.768.768 0 11.229 1.519c-.846.125-1.756.212-2.776.256h-.038.005z"/><path d="M215.567 52.502a.774.774 0 01-.769-.721.772.772 0 01.72-.82c2.656-.167 3.97-1.046 4.096-1.844.109-.688-.627-1.828-3.07-2.788a.772.772 0 01-.437-.998.774.774 0 011.004-.434c2.786 1.096 4.292 2.767 4.024 4.459-.278 1.763-2.345 2.935-5.524 3.14h-.049l.005.006zm-32.622-6.167a.774.774 0 01-.753-.597.77.77 0 01.584-.917c8.186-1.839 16.447-2.36 24.562-1.551 2.28.228 4.575.564 6.833.998.42.081.693.483.611.9a.77.77 0 01-.905.608 73.374 73.374 0 00-6.692-.982c-7.945-.792-16.043-.282-24.065 1.524-.06.011-.115.022-.169.022l-.006-.005zm-11.72 4.99a.785.785 0 01-.649-.347.763.763 0 01.224-1.063 37.88 37.88 0 014.243-2.387 37.188 37.188 0 014.319-1.752c.343-.114.638-.206.845-.271.404-.13.84.097.965.504a.763.763 0 01-.507.96c-.196.06-.474.152-.807.26a36.124 36.124 0 00-8.207 3.971.757.757 0 01-.42.125h-.006z"/><path d="M186.043 47.376a.583.583 0 01-.436-.195.573.573 0 01.049-.814 10.74 10.74 0 012.934-1.833 11.18 11.18 0 012.149-.657.578.578 0 11.223 1.134 9.815 9.815 0 00-4.122 1.877c-.18.14-.322.26-.42.347a.572.572 0 01-.382.146l.005-.005zm5.311-.732a.576.576 0 01-.316-1.063 21.857 21.857 0 012.95-1.578c.66-.294 1.342-.56 2.018-.782a.58.58 0 11.371 1.096c-.644.211-1.287.466-1.914.743a20.9 20.9 0 00-2.792 1.497.609.609 0 01-.311.092l-.006-.005zm6.463.011a.578.578 0 01-.349-1.041c.115-.082.279-.202.48-.343a15.424 15.424 0 014.538-2.072.586.586 0 01.714.402.578.578 0 01-.404.71 15.12 15.12 0 00-1.914.673c-.807.347-1.57.77-2.274 1.242-.191.125-.338.239-.442.315a.577.577 0 01-.343.114h-.006zm12.493 20.791s-.055 0-.082-.005l-4.357-.603a.58.58 0 01-.496-.65.581.581 0 01.654-.494l4.357.602a.58.58 0 01.497.65.581.581 0 01-.573.5zm28.042-1.161a.559.559 0 01-.311-.092 14.537 14.537 0 01-3.408-2.978c-1.276-1.535-2.482-2.983-2.329-4.828.158-1.887 1.647-3.119 3.218-4.426a15.013 15.013 0 014.362-2.522.58.58 0 01.747.336.574.574 0 01-.338.743 13.994 13.994 0 00-4.03 2.327c-1.499 1.248-2.683 2.23-2.803 3.635-.114 1.377.846 2.533 2.062 3.997a13.284 13.284 0 003.135 2.74.576.576 0 01-.311 1.063l.006.005zM66.406 78.154a.7.7 0 01-.654-.45 2.77 2.77 0 01-.158-1.53c.464-2.414 4.172-3.255 6.877-3.873 2.803-.64 5.731-.89 8.703-.754a.704.704 0 01.671.732c-.016.385-.344.673-.736.667a30.943 30.943 0 00-8.322.716c-2.067.472-5.524 1.259-5.813 2.772-.044.233-.011.494.092.77a.697.697 0 01-.66.944v.006z"/><path d="M74.117 86.496a.699.699 0 01-.354-.097 42.835 42.835 0 01-3.392-2.219c-.47-.342-1.118-.808-1.93-1.502a28.307 28.307 0 01-2.117-1.997.839.839 0 01-.087-.108 3.582 3.582 0 00-.136-.195c-.698-1.01-1.347-2.056-.927-2.821.12-.222.425-.591 1.145-.564.387.01.693.33.682.716a.702.702 0 01-.491.645c.093.228.305.603.742 1.232.049.07.092.135.125.184a25.34 25.34 0 001.969 1.85c.774.656 1.39 1.106 1.843 1.432a41.447 41.447 0 003.277 2.142.695.695 0 01-.36 1.297l.011.005z"/><path d="M92.97 90.011c-.36 0-.714-.005-1.069-.016-4.766-.152-10.072-1.237-10.296-1.286a66.302 66.302 0 01-7.198-1.952.697.697 0 01-.442-.885.702.702 0 01.889-.439c2.312.77 4.684 1.41 7.04 1.91.05.01 5.415 1.106 10.056 1.258 1.435.049 2.901 0 4.347-.152.649-.065 1.003-.12 2.497-.353l1.8-.276c.502-.076.954-.152 1.369-.217 1.309-.212 2.257-.369 3.348-.385a16.55 16.55 0 014.526.57.698.698 0 01.497.856.703.703 0 01-.862.494 15.21 15.21 0 00-4.139-.526c-.993.016-1.898.163-3.147.369-.42.07-.878.14-1.385.222l-1.794.277c-1.483.227-1.887.293-2.569.358-1.15.114-2.312.173-3.462.173h-.006zm19.36-5.571c-.283 0-.572-.01-.856-.027a.414.414 0 01-.142-.027 11.93 11.93 0 01-1.118-.385c-.867-.347-1.483-.727-1.75-.89l-.071-.043a114.417 114.417 0 00-8.578-4.605c-2.678-1.291-4.788-2.31-7.662-3.287a50.595 50.595 0 00-9.407-2.213.698.698 0 11.19-1.384 51.206 51.206 0 019.675 2.273c2.95 1.004 5.099 2.04 7.814 3.352a116.192 116.192 0 018.688 4.66l.092.054c.235.147.786.483 1.538.787.295.119.6.222.905.314a11.068 11.068 0 002.874-.2c1.8-.364 5.857-.841 9.309-.993 1.953-.081 3.425-.054 5.17.342.529.119 1.053.27 1.565.439.366.125.562.52.442.884a.71.71 0 01-.889.44 13.814 13.814 0 00-1.429-.402c-1.592-.363-2.961-.39-4.799-.309-3.735.163-7.624.667-9.074.96-.213.043-.742.152-1.467.212-.338.027-.682.043-1.02.043v.005zm11.856 16.214a.697.697 0 01-.426-.147l-6.713-5.137a62.64 62.64 0 01-3.479-3.178 66.686 66.686 0 01-2.438-2.533.694.694 0 01.049-.988.703.703 0 01.993.05 62.276 62.276 0 005.759 5.565l6.685 5.115a.7.7 0 01.131.981.701.701 0 01-.556.272h-.005z"/><path d="M124.19 100.654a.699.699 0 01-.627-.385 19.132 19.132 0 01-1.887-6.097c-.229-1.752-.409-3.136.208-4.747.692-1.817 1.979-2.826 3.61-4.1l.142-.109a19.18 19.18 0 014.439-2.587.695.695 0 01.916.374.693.693 0 01-.377.911 17.784 17.784 0 00-4.111 2.392l-.142.109c-1.516 1.188-2.612 2.045-3.169 3.498-.49 1.28-.343 2.393-.125 4.069.251 1.93.84 3.835 1.75 5.652a.695.695 0 01-.316.938.706.706 0 01-.311.076v.006zM81.097 84.153c-.256 0-.523-.017-.796-.05-1.952-.249-3.255-1.306-3.86-1.914a.693.693 0 01.005-.987.702.702 0 01.992.005c.48.483 1.505 1.319 3.043 1.514 1.532.2 2.65-.364 3.392-.738.11-.054.196-.103.267-.141-.343-.174-.965-.374-1.854-.613a18.182 18.182 0 00-4.69-.597.703.703 0 01-.703-.7c0-.385.316-.7.703-.7 1.756 0 3.452.218 5.056.646 1.717.462 3.135.922 3.13 1.986 0 .64-.616 1.036-1.276 1.367-.677.336-1.849.927-3.409.927v-.005z"/><path d="M73.344 84.11a.696.696 0 01-.289-1.334 9.246 9.246 0 003.266-2.42 9.105 9.105 0 001.2-1.801.701.701 0 01.943-.31c.35.174.486.592.311.94a10.503 10.503 0 01-1.385 2.082 10.515 10.515 0 01-3.763 2.788.674.674 0 01-.289.06l.006-.005zm-2.476-7.226a1.352 1.352 0 01-1.32-1.692c.093-.353.311-.646.627-.825a1.374 1.374 0 011.031-.146 1.353 1.353 0 01.982 1.649 1.33 1.33 0 01-.627.824c-.213.125-.448.19-.687.19h-.006zm0-1.394s-.038.016-.043.033c0 .021.01.049.032.054.028.005.05-.01.055-.033.005-.021-.006-.048-.033-.054h-.011zm16.965 17.211c-.223 0-.409-.016-.529-.027a15.48 15.48 0 01-2.116-.358 15.877 15.877 0 01-2.78-.954c-3.246-1.47-4.985-2.647-7.87-4.595a.696.696 0 01-.185-.97.704.704 0 01.976-.185c2.917 1.969 4.526 3.054 7.662 4.48.812.37 1.668.662 2.53.868.627.152 1.276.26 1.92.326.398.038.785.005 1.014-.044-.202-.309-.763-.911-1.974-1.817a.697.697 0 01-.142-.976.706.706 0 01.982-.141c2.732 2.04 2.808 2.94 2.525 3.547-.333.716-1.337.846-2.018.846h.005zm15.777 1.308c-1.581 0-3.141-.223-4.662-.662a16.896 16.896 0 01-6.392-3.51.699.699 0 01-.06-.987.708.708 0 01.993-.06 15.54 15.54 0 005.857 3.217c1.521.44 3.092.64 4.673.602-.038-.531-.163-1.285-.512-1.86-.126-.206-.317-.52-.682-.797-.109-.082-.191-.13-.382-.245l-.158-.092a67.938 67.938 0 01-1.053-.65.698.698 0 01-.212-.966.705.705 0 01.97-.212c.235.152.584.369 1.026.635l.152.092c.257.157.366.222.513.33.573.435.878.94 1.025 1.183.747 1.226.747 2.816.731 3.271a.7.7 0 01-.654.673c-.393.027-.78.038-1.173.038zm3.337-12.677h-.065a20.313 20.313 0 01-1.985-.287.702.702 0 01-.557-.82.708.708 0 01.824-.553c.676.13 1.276.217 1.843.272a.698.698 0 01-.06 1.394v-.006z"/><path d="M108.304 81.462a8.68 8.68 0 01-1.483-.135.693.693 0 01-.567-.809.696.696 0 01.813-.564c1.783.315 2.797-.043 2.993-.499.18-.423-.245-1.318-1.603-2.272a.695.695 0 01-.169-.972.702.702 0 01.976-.168c1.811 1.275 2.591 2.75 2.089 3.95-.404.96-1.505 1.475-3.049 1.475v-.006zm-1.297-5.05a.722.722 0 01-.295-.065 51.185 51.185 0 00-4.466-1.795c-5.366-1.877-11.06-2.88-16.917-2.978a.703.703 0 01-.692-.71.71.71 0 01.714-.69c6.01.098 11.85 1.129 17.358 3.054a53.995 53.995 0 014.587 1.845.694.694 0 01.343.927.704.704 0 01-.638.407l.006.005zM76.37 73.07a.696.696 0 01-.66-.465.692.692 0 01.425-.89 27.142 27.142 0 017.318-1.492.698.698 0 11.093 1.394c-.148.011-.355.022-.6.044a25.725 25.725 0 00-6.337 1.372.708.708 0 01-.234.038h-.006z"/><path d="M87.516 72.273a.395.395 0 01-.343-.206.386.386 0 01.163-.52 7.726 7.726 0 012.345-.776 7.842 7.842 0 011.598-.092.39.39 0 01.371.401.388.388 0 01-.403.369 6.98 6.98 0 00-3.545.776.367.367 0 01-.18.043l-.006.005zm3.584.744a.384.384 0 01-.125-.749c.092-.032.229-.076.392-.13a16.513 16.513 0 013.452-.678.392.392 0 01.42.353.392.392 0 01-.354.417c-.48.044-.971.109-1.457.195-.627.114-1.243.266-1.826.445-.159.05-.284.093-.371.12a.34.34 0 01-.126.021l-.005.006zm4.482 1.095a.379.379 0 01-.355-.233.386.386 0 01.207-.504 11.36 11.36 0 012.323-.673 11.69 11.69 0 011.56-.157c.213 0 .393.163.398.374a.388.388 0 01-.376.396 10.266 10.266 0 00-3.245.63c-.153.054-.278.108-.36.14a.362.362 0 01-.147.033l-.005-.005zm5.149 16.528a.414.414 0 01-.142-.027l-2.923-1.15a.388.388 0 01-.218-.499.391.391 0 01.502-.217l2.923 1.15a.388.388 0 01.218.5.389.389 0 01-.36.243zm19.653 4.096a.579.579 0 01-.42-.18 10.372 10.372 0 01-1.887-2.679c-.644-1.307-1.249-2.544-.802-3.867.453-1.351 1.723-1.97 3.07-2.626a11.08 11.08 0 013.512-1.036.574.574 0 01.644.505.575.575 0 01-.507.64 9.82 9.82 0 00-3.136.922c-1.216.596-2.181 1.063-2.481 1.958-.295.873.163 1.812.747 2.994a9.256 9.256 0 001.68 2.387.578.578 0 01-.42.976v.006zM17.249 12.774a.756.756 0 01-.322-.076 30.791 30.791 0 00-7.87-2.793c-2.077-.429-5.545-1.145-6.445.114a1.464 1.464 0 00-.24.738.708.708 0 01-.747.65.7.7 0 01-.654-.743 2.797 2.797 0 01.496-1.453C2.896 7.209 6.62 7.979 9.34 8.538a32.293 32.293 0 018.23 2.924c.343.179.48.596.3.938a.708.708 0 01-.622.38v-.006z"/><path d="M5.191 22.186a.7.7 0 01-.578-.299 41.28 41.28 0 01-2.154-3.422c-.283-.505-.676-1.2-1.123-2.165a28.748 28.748 0 01-1.09-2.696.549.549 0 01-.034-.135c-.005-.054-.021-.136-.038-.239-.212-1.204-.365-2.425.338-2.95.202-.153.638-.359 1.282-.039A.697.697 0 011.4 11.56c-.005.245.028.679.158 1.427.017.087.028.163.039.222.294.847.632 1.687 1.014 2.501.425.917.802 1.579 1.074 2.067a41.867 41.867 0 002.083 3.308.694.694 0 01-.572 1.096l-.006.006z"/><path d="M36.38 39.326a.7.7 0 01-.448-.162 15.174 15.174 0 00-3.54-2.192c-.905-.396-1.788-.634-3.015-.965-.409-.114-.856-.234-1.352-.375l-1.756-.493c-1.44-.407-1.827-.516-2.482-.738a34.651 34.651 0 01-4.188-1.736c-4.27-2.11-8.638-5.3-8.823-5.435a66.887 66.887 0 01-5.727-4.757.693.693 0 01-.032-.987.702.702 0 01.992-.033 65.85 65.85 0 005.6 4.654c.044.033 4.462 3.25 8.617 5.305a33.927 33.927 0 004.014 1.666c.616.206.96.303 2.405.71l1.756.494c.49.14.932.26 1.341.369 1.282.347 2.204.602 3.207 1.036 1.363.59 2.667 1.4 3.872 2.392.3.244.338.683.093.982a.694.694 0 01-.54.255l.005.01zm20.985 3.857a.707.707 0 01-.48-.19c-.36-.336-.736-.656-1.129-.955-1.292-.987-2.53-1.578-4.232-2.267-3.468-1.4-7.21-2.55-8.649-2.886a12.39 12.39 0 01-3.136-1.182.587.587 0 01-.12-.082 12.063 12.063 0 01-.856-.813 10.847 10.847 0 01-1.216-1.535l-.049-.07a112.978 112.978 0 00-5.873-7.741c-1.898-2.284-3.387-4.085-5.584-6.162a49.925 49.925 0 00-7.624-5.907.7.7 0 01-.219-.966.707.707 0 01.971-.217 51.198 51.198 0 017.842 6.075c2.258 2.137 3.78 3.965 5.699 6.282a112.478 112.478 0 015.95 7.843l.06.087c.152.228.512.76 1.069 1.35.218.234.452.456.692.663.464.249.954.466 1.45.645.606.217 1.07.325 1.25.369 1.788.417 5.677 1.66 8.878 2.956 1.81.732 3.135 1.367 4.559 2.452.43.33.845.683 1.238 1.047a.693.693 0 01.027.987.69.69 0 01-.513.217h-.005zM44.788 55.8a.702.702 0 01-.622-.374l-3.954-7.448a64.196 64.196 0 01-1.832-4.328 56.574 56.574 0 01-1.15-3.315.694.694 0 01.457-.873.7.7 0 01.878.456 61.844 61.844 0 002.907 7.442l3.937 7.415c.18.342.05.765-.294.944a.711.711 0 01-.327.081z"/><path d="M44.782 55.8a.706.706 0 01-.703-.678c-.07-2.186.213-4.312.84-6.325.529-1.687.943-3.021 2.176-4.225 1.39-1.367 2.983-1.747 5-2.23l.175-.043a19.152 19.152 0 015.115-.51c.388.01.693.336.677.721a.686.686 0 01-.726.673 17.702 17.702 0 00-4.739.472l-.174.043c-1.876.45-3.229.776-4.347 1.872-.981.96-1.314 2.029-1.816 3.645a17.506 17.506 0 00-.774 5.864.7.7 0 01-.682.721h-.022zM15.1 23.46c-.922 0-2.236-.125-3.578-.96-1.669-1.036-2.41-2.538-2.705-3.341a.703.703 0 011.32-.477c.234.634.818 1.822 2.132 2.636 1.31.813 2.563.764 3.392.732.12 0 .218-.01.3-.022-.245-.298-.72-.743-1.428-1.329a17.925 17.925 0 00-4.014-2.484.7.7 0 11.589-1.27 19.545 19.545 0 014.324 2.68c1.37 1.128 2.465 2.143 2.018 3.103-.273.586-1.025.689-1.734.716-.175.005-.382.016-.61.016H15.1z"/><path d="M5.578 19.69h-.093a.699.699 0 11.005-1.4h.088a9.208 9.208 0 003.904-.845 9.412 9.412 0 001.85-1.14.7.7 0 01.986.11.695.695 0 01-.109.98c-.66.527-1.374.966-2.132 1.319a10.661 10.661 0 01-4.494.976h-.005zm.956-7.534c-.3 0-.606-.098-.856-.304a1.344 1.344 0 01-.197-1.904c.23-.282.556-.455.916-.493.36-.038.715.065.998.298a1.344 1.344 0 01.197 1.904 1.35 1.35 0 01-1.058.499zm0-1.394s-.028 0-.033.016c-.01.016-.01.05.005.06.017.016.05.01.06-.005.011-.017.011-.05-.005-.06a.042.042 0 00-.027-.011zm9.581 23.032c-.726 0-1.522-.418-1.816-.592a15.607 15.607 0 01-1.773-1.198 15.628 15.628 0 01-2.132-2.024c-2.334-2.685-3.425-4.47-5.23-7.436a.7.7 0 01.235-.96.708.708 0 01.965.233c1.827 3 2.836 4.654 5.093 7.247a14.064 14.064 0 003.55 2.929c.35.2.71.33.944.38-.055-.364-.31-1.145-1.036-2.469a.698.698 0 01.283-.949.705.705 0 01.955.282c1.63 2.989 1.325 3.835.812 4.275-.24.2-.534.276-.845.276l-.005.006zm13.78 7.865a.78.78 0 01-.245-.044 16.58 16.58 0 01-5.039-2.983 16.784 16.784 0 01-4.34-5.837.696.696 0 01.354-.922.703.703 0 01.927.353c.916 2.05 2.29 3.9 3.975 5.348a15.263 15.263 0 003.998 2.485c.185-.505.387-1.232.31-1.904a2.716 2.716 0 00-.283-1.01c-.066-.119-.12-.195-.245-.379l-.104-.152a47.085 47.085 0 01-.682-1.03.698.698 0 01.213-.966.707.707 0 01.97.212c.148.233.377.58.666 1.003l.104.152c.169.25.24.352.321.515.338.635.404 1.215.437 1.497.163 1.416-.497 2.864-.704 3.277a.698.698 0 01-.627.385h-.006zm7.302-10.567a.673.673 0 01-.349-.092 20.586 20.586 0 01-1.685-1.085.7.7 0 01-.164-.976.708.708 0 01.982-.163c.556.396 1.069.727 1.565 1.01a.698.698 0 01-.349 1.306z"/><path d="M39.963 32.172c-.905 0-2.002-.407-3.163-1.204a.695.695 0 01-.18-.971.704.704 0 01.976-.18c1.489 1.02 2.563 1.123 2.929.782.338-.315.327-1.302-.508-2.729a.694.694 0 01.257-.954.702.702 0 01.96.254c1.112 1.91 1.205 3.575.245 4.454-.398.363-.916.548-1.516.548zm-.643-5.528a.706.706 0 01-.535-.244 51.301 51.301 0 00-3.305-3.482c-4.09-3.933-8.845-7.198-14.13-9.715a.704.704 0 01-.332-.933.71.71 0 01.938-.331c5.42 2.576 10.301 5.934 14.5 9.97a52.738 52.738 0 013.392 3.58.7.7 0 01-.534 1.155h.005zM19.954 12.541a.686.686 0 01-.251-.049 26.098 26.098 0 00-3.621-1.08 25.802 25.802 0 00-3.283-.504.7.7 0 11.125-1.394c1.162.103 2.323.282 3.463.532a26.808 26.808 0 013.817 1.144c.36.136.546.543.404.9a.705.705 0 01-.654.451z"/><path d="M26.945 15.573a.396.396 0 01-.174-.043 7.46 7.46 0 00-1.342-.52 7.144 7.144 0 00-1.816-.25c-.163 0-.3 0-.387.01a.382.382 0 01-.41-.363.388.388 0 01.366-.407c.104-.005.257-.01.437-.01.676 0 1.358.092 2.017.276a8.12 8.12 0 011.49.575c.19.098.266.331.168.515a.384.384 0 01-.343.212l-.006.005zm2.934 2.207a.368.368 0 01-.131-.02 16.932 16.932 0 00-1.407-.43 16.067 16.067 0 00-1.849-.352c-.164-.022-.294-.032-.387-.043a.384.384 0 01-.35-.418.392.392 0 01.42-.347c.099.01.24.022.41.043a16.594 16.594 0 013.419.82.386.386 0 01-.13.748h.005zm3.626 2.833a.407.407 0 01-.152-.033 10.326 10.326 0 00-3.212-.77c-.164-.011-.295-.016-.388-.022a.388.388 0 01-.376-.396.388.388 0 01.398-.374c.098 0 .246.01.42.021a11.03 11.03 0 013.458.836.386.386 0 01.207.504.384.384 0 01-.355.234zm-5.987 16.332a.373.373 0 01-.278-.12l-2.176-2.256a.383.383 0 01.011-.542.388.388 0 01.545.01l2.176 2.257a.383.383 0 01-.278.651zm16.24 11.89a.573.573 0 01-.546-.385 10.38 10.38 0 01-.594-3.217c-.033-1.459-.071-2.831.889-3.85.976-1.037 2.388-1.075 3.888-1.118a11.014 11.014 0 013.627.515.578.578 0 11-.355 1.101 9.841 9.841 0 00-3.24-.46c-1.357.037-2.426.064-3.075.753-.633.673-.605 1.714-.578 3.032a9.24 9.24 0 00.529 2.864.576.576 0 01-.545.765z"/></g><defs><clipPath id="clip0_2638_35868"><path fill="#fff" d="M0 0h301v138H0z"/></clipPath></defs></svg>