<svg xmlns="http://www.w3.org/2000/svg" xmlns:xlink="http://www.w3.org/1999/xlink" width="140" zoomAndPan="magnify" viewBox="0 0 104.88 30.000001" height="40" preserveAspectRatio="xMidYMid meet" version="1.0"><defs><g/></defs><g fill="#ffffff" fill-opacity="1"><g transform="translate(12.407236, 20.125657)"><g><path d="M 11.222656 -2.550781 C 8.945312 -2.550781 6.574219 -2.191406 4.5625 -1.621094 C 5.042969 -4.832031 9.363281 -13.535156 12.605469 -17.316406 C 12.695312 -17.40625 12.726562 -17.496094 12.726562 -17.617188 C 12.726562 -18.15625 11.765625 -18.996094 10.953125 -18.996094 C 10.773438 -18.996094 10.625 -18.9375 10.472656 -18.847656 C 8.191406 -17.285156 2.011719 -6.632812 2.011719 -2.941406 C 2.011719 -2.222656 2.550781 -1.53125 3.152344 -1.140625 C 2.339844 -0.839844 1.652344 -0.511719 1.109375 -0.148438 C 0.480469 0.300781 0.238281 1.050781 0.238281 1.53125 C 0.238281 1.800781 0.332031 2.011719 0.480469 2.011719 C 0.570312 2.011719 0.691406 1.949219 0.839844 1.769531 C 1.351562 1.082031 6.902344 0.0585938 10.203125 0.0585938 C 11.554688 0.0585938 12.546875 0.238281 12.636719 0.660156 C 12.933594 0.660156 13.144531 0.148438 13.144531 -0.480469 C 13.144531 -1.410156 12.664062 -2.550781 11.222656 -2.550781 Z M 11.222656 -2.550781 "/></g></g></g><g fill="#ffffff" fill-opacity="1"><g transform="translate(26.210694, 20.125657)"><g><path d="M 3.722656 1.082031 C 5.640625 1.082031 7.894531 -4.441406 9.214844 -6.09375 L 9.453125 -6.03125 C 9.125 -5.160156 8.734375 -4.023438 8.734375 -2.699219 C 8.734375 -0.808594 9.933594 0 10.683594 0 C 11.945312 0 14.347656 -2.28125 17.285156 -7.171875 C 17.285156 -7.59375 16.746094 -7.953125 16.445312 -7.953125 C 13.957031 -4.292969 12.636719 -2.910156 11.703125 -2.910156 C 11.40625 -2.910156 11.285156 -3.121094 11.285156 -3.511719 C 11.285156 -4.710938 12.484375 -7.203125 12.816406 -7.261719 C 12.875 -7.324219 12.90625 -7.414062 12.90625 -7.53125 C 12.90625 -8.164062 11.765625 -9.035156 10.683594 -9.035156 C 9.214844 -9.035156 5.160156 -1.679688 4.203125 -1.679688 C 4.023438 -1.679688 3.871094 -1.800781 3.871094 -2.28125 C 3.871094 -4.5625 7.171875 -11.316406 10.414062 -11.316406 C 11.34375 -11.316406 12.003906 -10.953125 11.976562 -9.605469 C 12.753906 -9.722656 13.085938 -10.234375 13.085938 -10.835938 C 13.085938 -11.945312 11.164062 -13.386719 9.542969 -13.386719 C 5.914062 -13.386719 0.839844 -6.421875 0.839844 -2.339844 C 0.839844 -0.601562 2.25 1.082031 3.722656 1.082031 Z M 3.722656 1.082031 "/></g></g></g><g fill="#ffffff" fill-opacity="1"><g transform="translate(39.504029, 20.125657)"><g><path d="M 17.527344 -7.171875 C 17.527344 -7.59375 16.988281 -7.953125 16.6875 -7.953125 C 15.15625 -5.523438 13.324219 -3.691406 11.464844 -2.25 C 12.035156 -3.902344 12.515625 -5.613281 12.964844 -7.261719 C 12.996094 -7.324219 13.023438 -7.441406 13.023438 -7.53125 C 13.023438 -8.164062 12.09375 -9.035156 10.953125 -9.035156 C 9.484375 -9.035156 5.160156 -1.679688 4.203125 -1.679688 C 4.023438 -1.679688 3.871094 -1.800781 3.871094 -2.28125 C 3.871094 -4.5625 7.171875 -11.316406 10.414062 -11.316406 C 11.34375 -11.316406 12.003906 -10.953125 11.976562 -9.605469 C 12.753906 -9.722656 13.085938 -10.234375 13.085938 -10.835938 C 13.085938 -11.945312 11.164062 -13.386719 9.542969 -13.386719 C 5.914062 -13.386719 0.839844 -6.421875 0.839844 -2.339844 C 0.839844 -1.082031 2.25 0.628906 3.722656 0.628906 C 5.640625 0.628906 8.523438 -4.921875 9.875 -6.542969 L 10.085938 -6.511719 C 9.421875 -4.203125 8.554688 -1.769531 7.59375 0.269531 C 3.839844 2.402344 0.71875 3.363281 0.71875 5.070312 C 0.71875 6.242188 2.128906 7.292969 3.839844 7.292969 C 6.8125 7.292969 9.003906 4.082031 10.652344 -0.03125 C 12.996094 -1.621094 15.484375 -3.839844 17.527344 -7.171875 Z M 3.480469 5.550781 C 3.121094 5.550781 2.671875 5.371094 2.671875 4.890625 C 2.671875 3.960938 4.472656 3.300781 6.933594 2.070312 C 5.792969 4.140625 4.441406 5.550781 3.480469 5.550781 Z M 3.480469 5.550781 "/></g></g></g><g fill="#ffffff" fill-opacity="1"><g transform="translate(53.037424, 20.125657)"><g><path d="M 15.875 -7.171875 C 15.875 -7.59375 15.335938 -7.953125 15.035156 -7.953125 C 13.535156 -5.824219 12.066406 -4.800781 10.714844 -4.320312 C 11.765625 -6.363281 12.453125 -8.492188 12.453125 -9.875 C 12.453125 -11.886719 11.015625 -13.386719 9.453125 -13.386719 C 8.433594 -13.386719 7.441406 -12.726562 6.601562 -11.792969 C 4.410156 -11.015625 1.050781 -6.09375 1.050781 -2.941406 C 1.050781 -0.210938 3.542969 1.082031 4.980469 1.082031 C 6.542969 1.082031 8.191406 -0.421875 9.542969 -2.371094 C 11.34375 -2.761719 13.777344 -4.140625 15.875 -7.171875 Z M 10.085938 -10.503906 C 10.085938 -8.914062 8.972656 -6.152344 7.652344 -3.960938 C 5.792969 -4.113281 5.101562 -5.101562 5.101562 -6.363281 L 5.101562 -6.453125 C 5.882812 -8.132812 7.023438 -9.574219 8.285156 -9.785156 C 8.492188 -9.695312 8.582031 -9.875 8.582031 -10.175781 C 8.582031 -10.535156 8.433594 -11.042969 8.101562 -11.433594 C 8.464844 -11.644531 8.824219 -11.765625 9.152344 -11.765625 C 9.8125 -11.765625 10.085938 -11.285156 10.085938 -10.503906 Z M 4.5625 -0.570312 C 4.113281 -0.570312 3.902344 -1.082031 3.902344 -1.890625 C 3.902344 -2.550781 4.050781 -3.390625 4.292969 -4.320312 C 4.832031 -3.453125 5.824219 -2.882812 6.78125 -2.550781 C 5.941406 -1.378906 5.132812 -0.570312 4.5625 -0.570312 Z M 4.5625 -0.570312 "/></g></g></g><g fill="#ffffff" fill-opacity="1"><g transform="translate(64.9204, 20.125657)"><g><path d="M 15.875 -7.171875 C 15.875 -7.59375 15.335938 -7.953125 15.035156 -7.953125 C 13.535156 -5.824219 12.066406 -4.800781 10.714844 -4.320312 C 11.765625 -6.363281 12.453125 -8.492188 12.453125 -9.875 C 12.453125 -11.886719 11.015625 -13.386719 9.453125 -13.386719 C 8.433594 -13.386719 7.441406 -12.726562 6.601562 -11.792969 C 4.410156 -11.015625 1.050781 -6.09375 1.050781 -2.941406 C 1.050781 -0.210938 3.542969 1.082031 4.980469 1.082031 C 6.542969 1.082031 8.191406 -0.421875 9.542969 -2.371094 C 11.34375 -2.761719 13.777344 -4.140625 15.875 -7.171875 Z M 10.085938 -10.503906 C 10.085938 -8.914062 8.972656 -6.152344 7.652344 -3.960938 C 5.792969 -4.113281 5.101562 -5.101562 5.101562 -6.363281 L 5.101562 -6.453125 C 5.882812 -8.132812 7.023438 -9.574219 8.285156 -9.785156 C 8.492188 -9.695312 8.582031 -9.875 8.582031 -10.175781 C 8.582031 -10.535156 8.433594 -11.042969 8.101562 -11.433594 C 8.464844 -11.644531 8.824219 -11.765625 9.152344 -11.765625 C 9.8125 -11.765625 10.085938 -11.285156 10.085938 -10.503906 Z M 4.5625 -0.570312 C 4.113281 -0.570312 3.902344 -1.082031 3.902344 -1.890625 C 3.902344 -2.550781 4.050781 -3.390625 4.292969 -4.320312 C 4.832031 -3.453125 5.824219 -2.882812 6.78125 -2.550781 C 5.941406 -1.378906 5.132812 -0.570312 4.5625 -0.570312 Z M 4.5625 -0.570312 "/></g></g></g><g fill="#ffffff" fill-opacity="1"><g transform="translate(76.803376, 20.125657)"><g><path d="M 2.582031 0.898438 C 2.882812 0.898438 3.0625 0.839844 3.089844 0.660156 C 4.921875 -4.230469 10.144531 -10.445312 11.375 -10.445312 C 11.496094 -10.445312 11.554688 -10.382812 11.554688 -10.292969 C 11.554688 -9.484375 8.164062 -5.550781 8.164062 -2.910156 C 8.164062 -1.199219 9.484375 0.238281 10.746094 0.238281 C 12.453125 0.238281 15.457031 -2.402344 18.457031 -7.171875 C 18.457031 -7.59375 17.917969 -7.953125 17.617188 -7.953125 C 15.304688 -4.53125 12.816406 -2.28125 11.824219 -2.28125 C 11.523438 -2.28125 11.375 -2.460938 11.375 -2.851562 C 11.375 -4.410156 13.984375 -8.855469 14.976562 -10.144531 C 15.125 -10.234375 15.15625 -10.414062 15.15625 -10.625 C 15.15625 -11.464844 14.164062 -12.753906 12.453125 -12.753906 C 10.535156 -12.753906 6.210938 -7.5625 4.050781 -3.660156 L 3.839844 -3.722656 C 4.980469 -6.902344 7.261719 -10.894531 7.683594 -10.894531 C 7.773438 -10.953125 7.832031 -11.074219 7.832031 -11.164062 C 7.832031 -11.734375 6.84375 -12.664062 5.941406 -12.664062 C 4.441406 -12.664062 0.449219 -3.363281 0.449219 -1.109375 C 0.449219 0.179688 1.832031 0.898438 2.582031 0.898438 Z M 2.582031 0.898438 "/></g></g></g></svg>