<svg width="301" height="138" viewBox="0 0 301 138" fill="none" xmlns="http://www.w3.org/2000/svg">
<g clip-path="url(#clip0_2638_35868)">
<path d="M63.945 15.3344C63.6832 15.3344 63.4324 15.188 63.3124 14.9384C62.9361 14.1628 62.7889 13.3871 62.8652 12.6385C63.2633 8.80895 69.2348 6.8996 73.5975 5.50555C78.2002 4.03556 83.0755 3.18936 88.0817 2.99409C88.4525 2.96697 88.7961 3.27615 88.8125 3.6667C88.8288 4.05183 88.5234 4.37729 88.1362 4.39356C83.2555 4.58341 78.511 5.40249 74.0283 6.8345C70.4891 7.96819 64.5612 9.86127 64.2613 12.785C64.2122 13.2786 64.3158 13.7993 64.5776 14.3418C64.7466 14.6889 64.5994 15.1066 64.2504 15.2747C64.1522 15.3236 64.0486 15.3453 63.945 15.3453V15.3344Z" fill="#de786b"/>
<path d="M142.601 19.6142C142.601 19.6142 142.546 19.6142 142.519 19.6142C141.39 19.484 140.261 19.2507 139.165 18.9144C137.709 18.4696 136.624 17.9272 136.166 17.6994L136.013 17.6234C131.045 15.2259 125.919 13.0128 120.782 11.0546C116.054 9.25371 112.313 7.82711 107.284 6.57952C101.978 5.26684 96.4813 4.45861 90.9516 4.1874C90.5644 4.1657 90.2645 3.84024 90.2863 3.45512C90.3081 3.06999 90.6298 2.77165 91.0225 2.79335C96.6449 3.06999 102.229 3.88906 107.628 5.22887C112.743 6.49816 116.512 7.9356 121.289 9.75275C126.464 11.7272 131.628 13.9512 136.629 16.365L136.798 16.4464C137.267 16.6796 138.243 17.1678 139.585 17.58C140.599 17.8892 141.641 18.1062 142.688 18.2255C143.075 18.2689 143.348 18.6161 143.304 18.9958C143.266 19.3538 142.961 19.6142 142.606 19.6142H142.601Z" fill="#de786b"/>
<path d="M76.925 27.7073C76.8159 27.7073 76.7068 27.6801 76.6032 27.6313C75.398 27.0075 73.5984 26.0528 71.8915 25.0331C71.4389 24.7619 70.5936 24.2628 69.5029 23.5305C69.1702 23.3081 68.8103 23.064 68.4395 22.7928C67.1089 21.849 65.8219 20.8238 64.6058 19.7498C64.573 19.7172 64.5403 19.6847 64.513 19.6467C64.4531 19.5708 64.3604 19.4569 64.2404 19.3158C63.0079 17.8296 61.8463 16.2837 62.3317 15.1771C62.4844 14.8245 62.8607 14.396 63.7659 14.3472C64.1586 14.3201 64.4858 14.6184 64.5076 15.0035C64.5294 15.3886 64.2349 15.7195 63.8477 15.7412C63.7332 15.7466 63.6623 15.7629 63.6187 15.7738C63.6187 16.0233 63.875 16.6796 65.3256 18.4263C65.4347 18.5564 65.5219 18.6649 65.5874 18.7463C66.7544 19.7715 67.9869 20.7479 69.2575 21.6537C69.6229 21.9141 69.9664 22.1473 70.2882 22.3697C71.3461 23.0803 72.1696 23.5685 72.6113 23.8343C74.291 24.8324 76.0579 25.7762 77.2467 26.3892C77.5903 26.5682 77.7266 26.9858 77.5467 27.333C77.4212 27.5716 77.1758 27.7127 76.925 27.7127V27.7073Z" fill="#de786b"/>
<path d="M104.885 31.781C98.0245 31.781 91.4368 31.0107 91.355 30.9999C87.2158 30.4846 83.0385 29.7252 78.9485 28.7434C78.5722 28.6511 78.3377 28.2769 78.4304 27.9026C78.5231 27.5283 78.8994 27.2951 79.2757 27.3873C83.3167 28.3582 87.4394 29.1068 91.524 29.6113C91.6113 29.6221 100.887 30.707 108.806 30.2839C111.26 30.1537 113.752 29.8553 116.206 29.3889C117.302 29.1827 117.897 29.0363 120.389 28.4342L123.405 27.7019C124.392 27.4632 125.253 27.2462 126.017 27.0564C128.296 26.4868 129.801 26.1071 131.263 26.0041C133.428 25.8522 135.637 26.0366 137.818 26.5574C138.194 26.6441 138.429 27.0239 138.336 27.3981C138.249 27.7724 137.872 28.0057 137.491 27.9134C135.446 27.4307 133.384 27.2571 131.361 27.3981C130.02 27.4903 128.64 27.8375 126.36 28.4125C125.591 28.6078 124.724 28.8247 123.737 29.0634L120.721 29.7957C118.262 30.3924 117.602 30.5551 116.468 30.7666C113.954 31.2385 111.402 31.5477 108.882 31.6833C107.568 31.7539 106.221 31.781 104.885 31.781Z" fill="#de786b"/>
<path d="M144.81 19.6631C144.51 19.6631 144.232 19.4678 144.139 19.1695C144.024 18.8006 144.232 18.4101 144.602 18.2961C146.239 17.7971 154.768 15.2477 161.797 14.2171C165.227 13.7126 167.741 13.6638 170.479 14.0435C171.373 14.1682 172.268 14.3418 173.14 14.5534C173.516 14.6456 173.745 15.0253 173.653 15.3996C173.56 15.7738 173.184 16.0071 172.802 15.9094C171.979 15.7087 171.128 15.546 170.277 15.4267C167.681 15.0633 165.282 15.1121 161.993 15.5948C155.068 16.6146 146.626 19.1315 145.006 19.6305C144.935 19.6522 144.87 19.6631 144.799 19.6631H144.81Z" fill="#de786b"/>
<path d="M165.009 45.0488C164.96 45.0488 164.911 45.0488 164.862 45.0325C161.72 44.3599 156.376 41.7725 154.424 39.9879C152.739 38.7349 151.392 37.7423 150.246 36.8961C146.282 33.9724 144.64 32.7682 139.432 28.407C139.138 28.1575 139.1 27.7181 139.345 27.4252C139.596 27.1323 140.038 27.0943 140.332 27.3384C145.507 31.667 147.138 32.8712 151.081 35.7732C152.237 36.6249 153.595 37.6229 155.296 38.8922C155.318 38.9085 155.334 38.9248 155.356 38.941C157.112 40.5683 162.244 43.0418 165.162 43.6656C165.543 43.747 165.783 44.1158 165.701 44.4955C165.631 44.821 165.341 45.0488 165.014 45.0488H165.009Z" fill="#de786b"/>
<path d="M165.009 45.0488C164.823 45.0488 164.632 44.9729 164.496 44.8264C162.669 42.8899 160.324 39.6299 159.544 35.0952C159.31 33.7391 158.765 30.5659 160.046 26.9587C161.219 23.6662 163.264 21.7622 165.63 19.5545C167.708 17.6181 170.069 15.9582 172.654 14.613C172.998 14.434 173.423 14.5642 173.603 14.9059C173.783 15.2476 173.652 15.6707 173.309 15.8497C170.838 17.1353 168.581 18.7246 166.596 20.5743C164.272 22.7386 162.435 24.4527 161.377 27.4252C160.215 30.6907 160.717 33.6144 160.935 34.862C161.655 39.0549 163.831 42.0763 165.527 43.8717C165.794 44.1538 165.778 44.5932 165.494 44.859C165.358 44.9837 165.183 45.0488 165.014 45.0488H165.009Z" fill="#de786b"/>
<path d="M155.208 23.2269C155.001 23.2269 154.799 23.1401 154.663 22.9666C154.417 22.6682 154.466 22.2289 154.766 21.9848C155.96 21.0247 157.269 20.2056 158.654 19.5601C160.323 18.779 162.096 18.242 163.922 17.9599C164.304 17.9003 164.664 18.1606 164.724 18.5457C164.784 18.9255 164.522 19.2835 164.135 19.3431C162.439 19.6035 160.798 20.1025 159.249 20.8294C157.967 21.4315 156.751 22.1855 155.644 23.0805C155.513 23.1835 155.361 23.2378 155.202 23.2378L155.208 23.2269Z" fill="#de786b"/>
<path d="M158.082 38.3877C157.934 38.3877 157.782 38.3389 157.651 38.2412C156.135 37.075 153.441 34.5635 152.481 30.8424C152.186 29.6925 151.565 27.2949 152.65 24.8486C152.803 24.5068 152.983 24.1705 153.184 23.8559C153.397 23.5305 153.828 23.4383 154.155 23.6498C154.482 23.8614 154.575 24.2899 154.362 24.6153C154.199 24.8649 154.052 25.1361 153.932 25.4127C153.043 27.4197 153.561 29.4213 153.839 30.5007C154.695 33.8204 157.133 36.0878 158.507 37.1401C158.812 37.3733 158.872 37.8127 158.632 38.1219C158.496 38.3009 158.289 38.3931 158.076 38.3931L158.082 38.3877Z" fill="#de786b"/>
<path d="M88.89 23.3951C88.7428 23.3951 88.5955 23.3951 88.4428 23.3842C85.2526 23.2486 82.9949 21.719 81.9315 20.8185C81.637 20.569 81.5988 20.1296 81.8497 19.8367C82.1005 19.5438 82.5422 19.5058 82.8367 19.7554C83.7638 20.5419 85.7325 21.8708 88.4973 21.9902C91.2731 22.1041 93.16 20.9487 94.4088 20.1785C95.0905 19.7554 95.3523 19.5004 95.4395 19.3865C95.2323 19.1533 94.3379 18.7464 91.4367 18.2311C88.83 17.7701 86.087 17.6562 83.2839 17.8948C82.8967 17.9219 82.5586 17.6453 82.5259 17.2602C82.4932 16.8751 82.7767 16.5387 83.1639 16.5062C86.087 16.2567 88.9554 16.376 91.6821 16.8588C94.3488 17.3307 96.7538 17.8786 96.8683 19.3214C96.9228 19.9778 96.4048 20.5907 95.145 21.3664C93.8962 22.1366 91.8457 23.3951 88.8845 23.3951H88.89Z" fill="#de786b"/>
<path d="M76.5534 24.4094C76.308 24.4094 76.068 24.2792 75.9371 24.0514C75.7463 23.7151 75.8717 23.2865 76.2098 23.1021C78.3639 21.9142 80.158 20.3249 81.5487 18.3938C82.2849 17.3686 82.9011 16.2512 83.3701 15.0687C83.5119 14.7107 83.9209 14.5371 84.2808 14.6781C84.6407 14.8192 84.8152 15.226 84.6735 15.584C84.1554 16.8696 83.4901 18.09 82.6884 19.202C81.1778 21.3067 79.2255 23.0316 76.8915 24.3226C76.7824 24.3822 76.6679 24.4094 76.5534 24.4094Z" fill="#de786b"/>
<path d="M70.102 10.5503C70.2056 9.94277 70.7837 9.53594 71.389 9.63901C71.9998 9.74207 72.4088 10.317 72.3051 10.9191C72.2015 11.5267 71.6235 11.9335 71.0181 11.8304C70.4074 11.7274 69.9984 11.1524 70.102 10.5503Z" fill="#de786b"/>
<path d="M101.569 36.8798C100.342 36.8635 99.1478 36.7659 97.9699 36.5869C96.3557 36.3428 94.7524 35.9414 93.2091 35.3936C87.5375 33.3866 84.4346 31.6562 79.2975 28.7922C78.9593 28.6023 78.8394 28.1792 79.0302 27.8429C79.2211 27.5066 79.6465 27.3873 79.9846 27.5771C85.2307 30.5008 88.121 32.1118 93.6835 34.0809C95.145 34.5962 96.6556 34.9759 98.1825 35.2091C99.295 35.3773 100.424 35.4695 101.547 35.4858C102.829 35.4369 103.445 35.2634 103.723 35.1386C103.38 34.9054 102.502 34.4497 100.304 33.7608C99.9331 33.6469 99.7313 33.251 99.8458 32.8875C99.9604 32.5187 100.358 32.3125 100.724 32.4319C104.258 33.5384 105.452 34.2978 105.288 35.323C105.081 36.6032 103.063 36.8256 101.564 36.8852L101.569 36.8798Z" fill="#de786b"/>
<path d="M103.711 33.8313C103.275 33.8313 102.861 33.8096 102.468 33.7879C96.8347 33.4407 92.2866 32.2474 92.0958 32.1931C89.9744 31.629 87.8476 30.9401 85.7753 30.1482C85.4153 30.0071 85.2354 29.6057 85.3717 29.2477C85.5135 28.8897 85.9171 28.7107 86.277 28.8463C88.3056 29.622 90.3834 30.2946 92.4557 30.8479C92.6411 30.8967 97.0529 32.0575 102.55 32.3938C103.815 32.4698 105.178 32.5023 106.776 31.9382C107.643 31.6344 108.467 31.1896 109.219 30.6201C109.53 30.3868 109.967 30.4465 110.201 30.7557C110.436 31.0649 110.376 31.4988 110.065 31.7321C109.198 32.3884 108.249 32.8983 107.245 33.2509C105.942 33.7119 104.759 33.8313 103.706 33.8313H103.711Z" fill="#de786b"/>
<path d="M126.884 36.8798C125.052 36.8798 123.231 36.7008 121.426 36.3428C117.439 35.5455 113.589 33.8422 110.29 31.4176C109.979 31.1897 109.913 30.7504 110.143 30.4412C110.372 30.132 110.813 30.0669 111.124 30.2947C114.26 32.6001 117.914 34.2219 121.698 34.9759C124.545 35.5455 127.452 35.6377 130.342 35.2634C130.233 34.3304 129.917 32.676 129.044 31.4827C128.793 31.1409 128.379 30.5714 127.648 30.1103C127.457 29.9855 127.31 29.915 126.912 29.7198L126.634 29.5841C125.837 29.1882 125.194 28.8573 124.768 28.6349C124.425 28.4559 124.294 28.0328 124.474 27.6911C124.654 27.3493 125.079 27.2191 125.423 27.3981C125.843 27.6205 126.475 27.946 127.261 28.3311L127.533 28.4667C127.953 28.6729 128.144 28.7651 128.406 28.9332C129.36 29.5407 129.895 30.2676 130.178 30.6582C131.536 32.5024 131.765 35.079 131.803 35.8221C131.82 36.1801 131.563 36.4947 131.209 36.549C129.769 36.7714 128.324 36.8853 126.879 36.8853L126.884 36.8798Z" fill="#de786b"/>
<path d="M133.002 14.8517C131.971 14.8517 130.875 14.7811 129.654 14.651C129.266 14.6076 128.988 14.2658 129.032 13.8807C129.075 13.4956 129.419 13.2135 129.806 13.2623C130.984 13.3871 132.031 13.4522 133.013 13.4576C133.4 13.4576 133.711 13.7722 133.711 14.1573C133.711 14.5425 133.395 14.8517 133.007 14.8517H133.002Z" fill="#de786b"/>
<path d="M133.624 6.92676C133.553 6.92676 133.477 6.91591 133.406 6.89421C132.621 6.63384 131.835 6.36805 131.05 6.09684C128.885 5.3537 126.644 4.58345 124.321 4.07357C114.21 2.0286 104.361 1.14986 95.0576 1.46447C94.6759 1.47532 94.3432 1.17698 94.3323 0.791855C94.3214 0.406728 94.6214 0.0812693 95.0085 0.0704207C104.416 -0.249614 114.379 0.634549 124.61 2.70664C127.025 3.23822 129.299 4.01932 131.503 4.77873C132.282 5.04452 133.062 5.31573 133.842 5.57068C134.213 5.69001 134.409 6.08599 134.289 6.44942C134.191 6.74233 133.918 6.93218 133.624 6.93218V6.92676Z" fill="#de786b"/>
<path d="M80.0608 5.2941C79.7936 5.2941 79.5373 5.14222 79.4228 4.88728C79.2646 4.5347 79.4228 4.12245 79.7718 3.96515C81.555 3.15692 83.4037 2.46261 85.2742 1.89306C87.6901 1.15535 90.1823 0.618344 92.6909 0.292886C93.0781 0.244067 93.4271 0.509858 93.4761 0.894984C93.5252 1.28011 93.258 1.62727 92.8708 1.67609C90.4441 1.9907 88.0228 2.51143 85.6832 3.22744C83.8727 3.78072 82.0731 4.45333 80.3498 5.23444C80.2571 5.27783 80.159 5.29953 80.0608 5.29953V5.2941Z" fill="#de786b"/>
<path d="M93.9664 3.39006C93.7373 3.39006 93.5083 3.27614 93.372 3.07002C93.1647 2.74456 93.2574 2.31062 93.5846 2.10449C93.7319 2.01228 93.95 1.87667 94.2172 1.72479C95.2207 1.16066 96.3059 0.732141 97.4402 0.444653C98.3182 0.222256 99.2235 0.0920723 100.134 0.0541021C100.521 0.0378291 100.849 0.336167 100.865 0.721293C100.881 1.10642 100.581 1.43188 100.194 1.44815C99.3761 1.4807 98.569 1.60003 97.7838 1.79531C96.7694 2.05025 95.7987 2.43538 94.9044 2.93441C94.6644 3.07002 94.4736 3.18936 94.3372 3.27072C94.2227 3.34666 94.0918 3.37921 93.9609 3.37921L93.9664 3.39006Z" fill="#de786b"/>
<path d="M103.744 4.00306C103.515 4.00306 103.286 3.88915 103.155 3.68303C102.948 3.35757 103.041 2.92905 103.368 2.7175C103.515 2.62529 103.733 2.48968 104 2.3378C105.004 1.77367 106.089 1.34515 107.229 1.05766C108.107 0.835263 109.012 0.70508 109.923 0.66711C110.31 0.645412 110.637 0.949174 110.654 1.3343C110.67 1.71943 110.37 2.04489 109.983 2.06116C109.165 2.0937 108.358 2.21304 107.572 2.40831C106.558 2.66326 105.587 3.04838 104.693 3.54742C104.453 3.68303 104.262 3.80236 104.126 3.88373C104.011 3.95967 103.875 3.99221 103.75 3.99221L103.744 4.00306Z" fill="#de786b"/>
<path d="M112.765 5.27238C112.536 5.27238 112.307 5.15847 112.171 4.95235C111.964 4.62689 112.056 4.19837 112.383 3.98682C112.531 3.8946 112.749 3.759 113.016 3.60712C114.025 3.04299 115.11 2.61447 116.244 2.32698C117.122 2.10458 118.028 1.9744 118.938 1.93643C119.326 1.92015 119.653 2.21849 119.669 2.60362C119.686 2.98874 119.386 3.3142 118.998 3.33048C118.18 3.36302 117.373 3.48236 116.588 3.67763C115.574 3.93257 114.603 4.3177 113.709 4.81674C113.469 4.95235 113.278 5.07168 113.141 5.15305C113.027 5.22899 112.896 5.26153 112.765 5.26153V5.27238Z" fill="#de786b"/>
<path d="M126.168 34.07H126.152C123.753 34.0103 121.473 33.4733 119.384 32.4644C118.474 32.025 117.601 31.4989 116.789 30.8968C116.478 30.6635 116.412 30.2296 116.647 29.9204C116.881 29.6112 117.318 29.5461 117.628 29.7794C118.37 30.3326 119.172 30.8154 119.995 31.2114C121.904 32.1281 123.987 32.6217 126.185 32.6759C126.572 32.6868 126.877 33.0068 126.872 33.3919C126.861 33.7716 126.55 34.0754 126.168 34.0754V34.07Z" fill="#de786b"/>
<path d="M124.904 31.2548C124.822 31.2548 124.741 31.2385 124.664 31.2114L120.667 29.7577C120.302 29.6275 120.116 29.2261 120.247 28.8627C120.378 28.4993 120.787 28.3148 121.147 28.445L125.144 29.8987C125.51 30.0289 125.695 30.4303 125.564 30.7937C125.46 31.0758 125.193 31.2548 124.904 31.2548Z" fill="#de786b"/>
<path d="M134.862 14.7867C134.486 14.7867 134.169 14.4884 134.158 14.1087C134.148 13.7235 134.453 13.4035 134.84 13.3926C137.485 13.3167 138.614 12.8068 138.799 11.5809C138.298 9.90481 137.011 8.54331 134.873 7.4259C134.529 7.2469 134.398 6.8238 134.578 6.48207C134.758 6.14034 135.184 6.01016 135.527 6.18916C138.085 7.52354 139.612 9.2105 140.19 11.3423C140.212 11.4236 140.217 11.5104 140.212 11.5918C139.917 14.6402 136.389 14.7433 134.884 14.7867C134.878 14.7867 134.867 14.7867 134.862 14.7867Z" fill="#de786b"/>
<path d="M163.896 128.67C163.673 128.67 163.455 128.562 163.318 128.366C163.002 127.905 162.828 127.417 162.8 126.918C162.675 124.466 166.078 122.774 168.564 121.537C171.133 120.257 173.92 119.324 176.843 118.76C177.224 118.689 177.59 118.934 177.666 119.313C177.743 119.693 177.492 120.056 177.11 120.132C174.312 120.675 171.651 121.564 169.192 122.785C167.294 123.729 164.125 125.307 164.202 126.848C164.213 127.086 164.305 127.33 164.474 127.574C164.693 127.894 164.611 128.328 164.294 128.545C164.174 128.627 164.033 128.67 163.896 128.67Z" fill="#de786b"/>
<path d="M173.374 134.968C173.308 134.968 173.237 134.957 173.172 134.935C171.868 134.539 170.581 134.084 169.349 133.579C168.809 133.357 168.073 133.053 167.119 132.576C166.251 132.136 165.395 131.654 164.588 131.133C164.55 131.106 164.512 131.079 164.479 131.046C164.441 131.008 164.376 130.954 164.299 130.883C163.383 130.07 162.505 129.202 162.729 128.361C162.794 128.117 163.007 127.688 163.71 127.542C164.087 127.461 164.463 127.699 164.545 128.079C164.61 128.377 164.468 128.67 164.223 128.822C164.37 129.017 164.665 129.337 165.237 129.842C165.303 129.902 165.363 129.95 165.406 129.994C166.159 130.477 166.95 130.927 167.757 131.334C168.662 131.789 169.371 132.082 169.889 132.294C171.078 132.782 172.321 133.227 173.581 133.606C173.952 133.72 174.159 134.111 174.05 134.48C173.957 134.783 173.679 134.973 173.379 134.973L173.374 134.968Z" fill="#de786b"/>
<path d="M179.465 135.364C177.606 135.364 175.735 135.288 173.881 135.131C173.494 135.098 173.21 134.762 173.243 134.377C173.276 133.991 173.619 133.709 174.001 133.742C176.428 133.943 178.882 134.013 181.297 133.943C181.347 133.943 186.822 133.747 191.364 132.798C192.766 132.505 194.178 132.115 195.553 131.626C196.163 131.409 196.496 131.274 197.892 130.699L199.577 130.005C200.052 129.809 200.472 129.63 200.859 129.468C202.08 128.952 202.964 128.578 204.022 128.307C205.461 127.932 206.983 127.759 208.554 127.797C208.941 127.808 209.246 128.128 209.241 128.513C209.23 128.898 208.919 129.202 208.521 129.196C207.081 129.164 205.69 129.321 204.376 129.657C203.416 129.907 202.577 130.26 201.41 130.753C201.017 130.921 200.592 131.1 200.112 131.296L198.427 131.99C197.041 132.559 196.671 132.711 196.022 132.939C194.587 133.444 193.115 133.856 191.653 134.16C186.985 135.131 181.57 135.326 181.341 135.331C180.719 135.348 180.092 135.358 179.471 135.358L179.465 135.364Z" fill="#de786b"/>
<path d="M209.225 124.146C209.225 124.146 209.209 124.146 209.198 124.146C208.805 124.13 208.407 124.092 208.02 124.038C207.098 123.902 206.406 123.68 206.106 123.582L206.024 123.555C202.926 122.606 199.753 121.776 196.595 121.098C193.688 120.474 191.393 119.98 188.371 119.704C185.181 119.411 181.931 119.433 178.708 119.769C178.321 119.807 177.977 119.53 177.939 119.145C177.901 118.76 178.179 118.418 178.566 118.38C181.882 118.039 185.225 118.017 188.502 118.315C191.611 118.597 193.945 119.102 196.895 119.736C200.096 120.425 203.308 121.261 206.444 122.226L206.548 122.259C206.809 122.345 207.426 122.541 208.233 122.66C208.549 122.709 208.871 122.736 209.187 122.752C209.705 122.66 210.223 122.53 210.725 122.362C211.336 122.161 211.766 121.955 211.93 121.879C213.593 121.103 217.422 119.682 220.743 118.727C222.619 118.185 224.058 117.87 225.853 117.843C226.392 117.832 226.943 117.854 227.478 117.903C227.865 117.936 228.148 118.277 228.116 118.662C228.083 119.048 227.739 119.33 227.352 119.297C226.861 119.254 226.365 119.237 225.869 119.243C224.238 119.264 222.897 119.563 221.135 120.073C217.542 121.109 213.888 122.514 212.546 123.137C212.344 123.23 211.859 123.457 211.172 123.685C210.578 123.881 209.967 124.032 209.351 124.141C209.312 124.146 209.274 124.152 209.231 124.152L209.225 124.146Z" fill="#de786b"/>
<path d="M225.388 136.953C225.296 136.953 225.197 136.931 225.105 136.893L217.361 133.482C215.938 132.771 214.558 132.012 213.227 131.214C212.229 130.618 211.226 129.977 210.261 129.327C209.939 129.11 209.857 128.676 210.075 128.356C210.293 128.036 210.73 127.954 211.051 128.171C212 128.811 212.976 129.435 213.953 130.021C215.256 130.802 216.608 131.545 217.966 132.223L225.677 135.619C226.032 135.776 226.19 136.188 226.037 136.541C225.923 136.801 225.666 136.959 225.394 136.959L225.388 136.953Z" fill="#de786b"/>
<path d="M225.388 136.953C225.186 136.953 224.99 136.866 224.854 136.704C223.436 135.033 222.334 133.189 221.576 131.225C220.938 129.576 220.437 128.274 220.649 126.566C220.889 124.634 221.903 123.354 223.185 121.732L223.294 121.591C224.347 120.257 225.59 119.064 226.991 118.039C227.302 117.811 227.744 117.876 227.973 118.185C228.202 118.494 228.137 118.934 227.826 119.161C226.528 120.116 225.372 121.223 224.401 122.454L224.292 122.595C223.103 124.103 222.242 125.193 222.045 126.739C221.876 128.101 222.28 129.142 222.891 130.721C223.594 132.538 224.619 134.246 225.934 135.803C226.184 136.096 226.146 136.541 225.852 136.785C225.721 136.893 225.557 136.948 225.399 136.948L225.388 136.953Z" fill="#de786b"/>
<path d="M178.265 131.203C176.657 131.203 175.413 130.601 174.77 130.211C174.442 130.01 174.339 129.576 174.541 129.251C174.742 128.925 175.173 128.822 175.506 129.023C176.084 129.375 177.284 129.945 178.822 129.777C180.359 129.609 181.308 128.8 181.941 128.263C182.034 128.187 182.105 128.117 182.164 128.063C181.788 127.976 181.139 127.922 180.218 127.9C178.68 127.862 177.098 128.041 175.517 128.421C175.141 128.513 174.759 128.28 174.666 127.905C174.573 127.531 174.808 127.151 175.184 127.059C176.886 126.647 178.593 126.457 180.25 126.495C182.028 126.538 183.517 126.658 183.762 127.688C183.91 128.318 183.386 128.865 182.852 129.321C182.181 129.891 180.937 130.943 178.974 131.16C178.729 131.187 178.494 131.198 178.265 131.198V131.203Z" fill="#de786b"/>
<path d="M172.054 132.825C171.846 132.825 171.639 132.733 171.497 132.554C171.257 132.25 171.317 131.811 171.623 131.572C172.735 130.715 173.608 129.663 174.224 128.453C174.551 127.813 174.797 127.13 174.96 126.419C175.047 126.045 175.424 125.811 175.8 125.898C176.176 125.985 176.411 126.359 176.324 126.734C176.133 127.553 175.849 128.339 175.473 129.082C174.764 130.482 173.755 131.691 172.479 132.679C172.353 132.776 172.201 132.825 172.048 132.825H172.054Z" fill="#de786b"/>
<path d="M167.774 126.408C167.774 126.408 167.763 126.408 167.752 126.408C167.005 126.397 166.399 125.779 166.41 125.036C166.421 124.287 167.021 123.691 167.79 123.702C168.155 123.702 168.493 123.853 168.744 124.114C168.995 124.374 169.132 124.716 169.126 125.074C169.115 125.812 168.504 126.408 167.768 126.408H167.774ZM167.73 125.052C167.73 125.052 167.746 125.09 167.774 125.096C167.795 125.096 167.817 125.074 167.817 125.052H167.73ZM167.73 125.052H167.817C167.817 125.052 167.79 124.993 167.774 125.009C167.752 125.009 167.73 125.025 167.73 125.052Z" fill="#de786b"/>
<path d="M185.66 138C184.683 138 183.707 137.908 182.747 137.723C179.241 137.056 177.272 136.324 174.011 135.109C173.646 134.973 173.466 134.572 173.602 134.208C173.738 133.845 174.142 133.666 174.507 133.802C177.812 135.033 179.628 135.706 183.015 136.351C183.893 136.519 184.765 136.601 185.681 136.601C186.33 136.601 186.985 136.552 187.628 136.465C188.026 136.411 188.392 136.286 188.604 136.183C188.332 135.933 187.65 135.478 186.254 134.881C185.9 134.729 185.73 134.317 185.889 133.964C186.041 133.612 186.456 133.444 186.81 133.601C189.951 134.941 190.24 135.798 190.11 136.454C189.902 137.479 188.31 137.783 187.83 137.848C187.116 137.946 186.363 137.995 185.67 138H185.66Z" fill="#de786b"/>
<path d="M200.047 135.781C199.796 135.781 199.545 135.776 199.294 135.765C196.862 135.657 194.424 134.995 192.248 133.856C191.905 133.677 191.774 133.254 191.954 132.912C192.134 132.57 192.559 132.44 192.903 132.619C194.899 133.66 197.129 134.268 199.359 134.366C200.935 134.436 202.512 134.263 204.044 133.85C203.848 133.254 203.531 132.592 203.1 132.163C202.926 131.99 202.67 131.729 202.25 131.55C202.124 131.496 202.032 131.469 201.819 131.398L201.644 131.344C201.143 131.187 200.739 131.051 200.467 130.959C200.101 130.834 199.905 130.438 200.03 130.07C200.156 129.706 200.554 129.511 200.925 129.636C201.186 129.728 201.584 129.858 202.07 130.015L202.244 130.07C202.533 130.162 202.653 130.2 202.822 130.276C203.477 130.563 203.897 130.981 204.098 131.182C205.113 132.196 205.495 133.742 205.587 134.192C205.658 134.545 205.456 134.892 205.113 135C203.466 135.521 201.764 135.781 200.052 135.781H200.047Z" fill="#de786b"/>
<path d="M202.118 122.411C201.747 122.411 201.437 122.118 201.415 121.743C201.398 121.358 201.698 121.033 202.085 121.011C202.773 120.978 203.378 120.924 203.94 120.837C204.321 120.783 204.681 121.044 204.736 121.423C204.79 121.803 204.529 122.161 204.147 122.215C203.536 122.307 202.882 122.367 202.151 122.4C202.14 122.4 202.129 122.4 202.118 122.4V122.411Z" fill="#de786b"/>
<path d="M204.044 122.232C203.678 122.232 203.367 121.949 203.346 121.581C203.318 121.196 203.613 120.865 204 120.838C205.805 120.724 206.71 120.138 206.787 119.644C206.857 119.189 206.23 118.424 204.687 117.811C204.327 117.67 204.153 117.263 204.294 116.905C204.436 116.547 204.845 116.373 205.205 116.514C207.266 117.328 208.379 118.576 208.172 119.861C207.959 121.196 206.432 122.08 204.087 122.226C204.071 122.226 204.054 122.226 204.044 122.226V122.232Z" fill="#de786b"/>
<path d="M180.741 117.827C180.419 117.827 180.13 117.605 180.059 117.285C179.972 116.91 180.212 116.536 180.588 116.449C186.45 115.131 192.367 114.757 198.181 115.337C199.811 115.5 201.458 115.739 203.072 116.053C203.454 116.129 203.699 116.493 203.629 116.872C203.552 117.252 203.187 117.496 202.805 117.426C201.234 117.122 199.631 116.889 198.039 116.726C192.378 116.162 186.608 116.525 180.899 117.811C180.844 117.822 180.795 117.827 180.746 117.827H180.741Z" fill="#de786b"/>
<path d="M172.37 121.391C172.14 121.391 171.917 121.277 171.781 121.076C171.568 120.751 171.661 120.322 171.982 120.111C172.958 119.476 173.984 118.896 175.031 118.396C176.029 117.914 177.076 117.491 178.134 117.138C178.379 117.057 178.592 116.986 178.739 116.943C179.104 116.829 179.503 117.035 179.617 117.398C179.732 117.767 179.524 118.158 179.159 118.272C179.017 118.315 178.821 118.38 178.586 118.456C177.583 118.792 176.596 119.194 175.647 119.65C174.654 120.127 173.684 120.675 172.757 121.277C172.637 121.353 172.506 121.391 172.375 121.391H172.37Z" fill="#de786b"/>
<path d="M183.091 117.984C182.982 117.984 182.878 117.941 182.802 117.854C182.66 117.697 182.677 117.453 182.835 117.312C182.911 117.246 183.026 117.149 183.167 117.035C183.702 116.617 184.291 116.276 184.923 116.01C185.409 115.804 185.927 115.646 186.45 115.543C186.657 115.5 186.865 115.635 186.903 115.847C186.941 116.059 186.81 116.259 186.598 116.297C186.123 116.389 185.66 116.53 185.223 116.715C184.656 116.954 184.122 117.268 183.642 117.637C183.516 117.735 183.413 117.827 183.342 117.887C183.271 117.952 183.178 117.984 183.086 117.984H183.091Z" fill="#de786b"/>
<path d="M186.746 117.87C186.621 117.87 186.495 117.805 186.419 117.691C186.305 117.512 186.354 117.274 186.534 117.16C186.615 117.106 186.735 117.03 186.883 116.943C187.433 116.612 188.028 116.303 188.633 116.037C189.108 115.826 189.587 115.641 190.073 115.478C190.275 115.413 190.493 115.522 190.564 115.722C190.629 115.923 190.52 116.14 190.318 116.211C189.86 116.363 189.397 116.542 188.949 116.742C188.371 116.997 187.81 117.29 187.281 117.605C187.139 117.686 187.024 117.762 186.948 117.811C186.883 117.854 186.812 117.87 186.741 117.87H186.746Z" fill="#de786b"/>
<path d="M191.365 117.876C191.245 117.876 191.131 117.822 191.054 117.719C190.929 117.55 190.961 117.306 191.136 117.182C191.218 117.122 191.332 117.035 191.48 116.937C192.025 116.569 192.614 116.249 193.236 115.977C193.715 115.771 194.212 115.592 194.713 115.457C194.921 115.397 195.133 115.522 195.188 115.728C195.242 115.934 195.122 116.145 194.915 116.2C194.452 116.324 193.988 116.487 193.541 116.682C192.963 116.932 192.418 117.23 191.91 117.572C191.774 117.664 191.665 117.74 191.594 117.794C191.523 117.843 191.447 117.87 191.365 117.87V117.876Z" fill="#de786b"/>
<path d="M200.291 132.728C200.291 132.728 200.253 132.728 200.237 132.728L197.123 132.299C196.91 132.272 196.763 132.077 196.796 131.865C196.823 131.654 197.025 131.507 197.232 131.54L200.346 131.968C200.558 131.995 200.706 132.191 200.673 132.402C200.646 132.592 200.482 132.733 200.291 132.733V132.728Z" fill="#de786b"/>
<path d="M220.317 132.093C220.213 132.093 220.104 132.066 220.006 132.001C219.068 131.41 218.234 130.683 217.536 129.842C216.598 128.719 215.72 127.661 215.834 126.273C215.954 124.857 217.04 123.957 218.19 123.002C219.134 122.221 220.197 121.602 221.359 121.174C221.659 121.06 221.991 121.212 222.106 121.51C222.22 121.809 222.068 122.139 221.768 122.253C220.731 122.638 219.777 123.192 218.937 123.886C217.896 124.748 217.072 125.432 216.99 126.37C216.914 127.287 217.579 128.09 218.425 129.104C219.046 129.853 219.788 130.498 220.628 131.03C220.901 131.198 220.977 131.556 220.808 131.827C220.699 132.001 220.508 132.093 220.317 132.093Z" fill="#de786b"/>
<path d="M237.49 108.47C237.174 108.47 236.89 108.259 236.809 107.939C236.672 107.396 236.678 106.881 236.83 106.403C237.572 104.06 241.357 103.653 244.116 103.36C246.974 103.051 249.913 103.143 252.847 103.626C253.229 103.691 253.491 104.049 253.425 104.429C253.36 104.809 253.005 105.069 252.618 105.004C249.81 104.537 246.996 104.456 244.269 104.749C242.164 104.977 238.636 105.357 238.172 106.827C238.101 107.054 238.101 107.315 238.172 107.602C238.265 107.976 238.036 108.356 237.659 108.448C237.605 108.465 237.545 108.47 237.49 108.47Z" fill="#de786b"/>
<path d="M244.164 117.653C244.017 117.653 243.864 117.604 243.739 117.512C242.654 116.693 241.612 115.82 240.631 114.914C240.2 114.518 239.611 113.976 238.891 113.2C238.231 112.489 237.604 111.741 237.026 110.971C236.999 110.933 236.977 110.895 236.955 110.851C236.933 110.802 236.895 110.732 236.846 110.64C236.268 109.56 235.75 108.443 236.257 107.727C236.404 107.521 236.753 107.195 237.462 107.298C237.844 107.352 238.111 107.71 238.057 108.09C238.013 108.394 237.778 108.622 237.495 108.676C237.56 108.909 237.729 109.311 238.089 109.989C238.133 110.065 238.166 110.135 238.193 110.184C238.733 110.9 239.316 111.594 239.927 112.251C240.609 112.988 241.176 113.509 241.59 113.889C242.534 114.762 243.548 115.603 244.595 116.4C244.906 116.633 244.961 117.073 244.726 117.377C244.59 117.556 244.377 117.653 244.17 117.653H244.164Z" fill="#de786b"/>
<path d="M279.137 124.439C279.05 124.439 278.963 124.423 278.875 124.39C277.539 123.859 276.176 123.522 274.829 123.387C273.842 123.289 272.926 123.327 271.66 123.387C271.235 123.409 270.772 123.425 270.259 123.447L268.432 123.512C266.938 123.566 266.54 123.582 265.853 123.566C264.331 123.539 262.81 123.414 261.332 123.192C256.62 122.486 251.472 120.789 251.254 120.713C248.92 119.926 246.591 118.988 244.334 117.935C243.984 117.773 243.832 117.355 243.995 117.008C244.159 116.661 244.579 116.509 244.928 116.672C247.137 117.708 249.411 118.619 251.696 119.389C251.745 119.405 256.942 121.119 261.533 121.808C262.951 122.02 264.413 122.139 265.869 122.166C266.518 122.177 266.872 122.166 268.378 122.112L270.21 122.047C270.717 122.031 271.175 122.009 271.6 121.987C272.926 121.928 273.885 121.884 274.971 121.993C276.449 122.139 277.937 122.508 279.399 123.089C279.759 123.23 279.933 123.636 279.791 123.994C279.682 124.266 279.421 124.434 279.137 124.434V124.439Z" fill="#de786b"/>
<path d="M300.295 121.7C300.192 121.7 300.094 121.678 299.996 121.635C299.554 121.423 299.09 121.233 298.627 121.071C297.089 120.523 295.731 120.338 293.899 120.203C290.169 119.926 286.248 119.98 284.775 120.1C284.552 120.116 284.012 120.165 283.292 120.138C282.67 120.116 282.043 120.046 281.427 119.932C281.378 119.921 281.329 119.91 281.285 119.888C280.92 119.736 280.565 119.563 280.222 119.378C279.404 118.934 278.836 118.483 278.591 118.288L278.52 118.234C275.946 116.27 273.263 114.393 270.542 112.663C268.039 111.068 266.059 109.81 263.321 108.503C260.431 107.125 257.377 106.018 254.242 105.21C253.865 105.112 253.642 104.733 253.74 104.358C253.838 103.984 254.22 103.762 254.596 103.859C257.824 104.689 260.966 105.828 263.932 107.244C266.746 108.589 268.759 109.864 271.3 111.486C274.054 113.238 276.775 115.137 279.376 117.127L279.464 117.192C279.682 117.361 280.183 117.762 280.898 118.152C281.176 118.304 281.465 118.445 281.759 118.57C282.277 118.662 282.812 118.722 283.341 118.738C283.979 118.76 284.459 118.722 284.639 118.706C286.471 118.554 290.556 118.554 294.002 118.809C295.955 118.955 297.411 119.151 299.101 119.753C299.614 119.932 300.116 120.143 300.601 120.371C300.95 120.539 301.097 120.951 300.934 121.304C300.814 121.554 300.563 121.7 300.301 121.7H300.295Z" fill="#de786b"/>
<path d="M292.226 137.55C292.051 137.55 291.872 137.485 291.735 137.349L285.671 131.469C284.586 130.308 283.561 129.12 282.59 127.911C281.859 126.999 281.15 126.061 280.468 125.112C280.245 124.797 280.321 124.363 280.632 124.141C280.948 123.918 281.385 123.994 281.608 124.304C282.274 125.231 282.966 126.153 283.681 127.043C284.629 128.225 285.633 129.386 286.669 130.498L292.706 136.356C292.984 136.628 292.989 137.067 292.717 137.344C292.58 137.485 292.395 137.555 292.215 137.555L292.226 137.55Z" fill="#de786b"/>
<path d="M292.225 137.55C291.936 137.55 291.669 137.371 291.565 137.089C290.824 135.033 290.436 132.917 290.415 130.813C290.393 129.044 290.382 127.65 291.178 126.126C292.083 124.401 293.479 123.55 295.246 122.476L295.399 122.383C296.85 121.499 298.437 120.81 300.111 120.333C300.482 120.224 300.874 120.441 300.978 120.81C301.087 121.179 300.869 121.57 300.498 121.673C298.944 122.112 297.477 122.752 296.135 123.571L295.983 123.663C294.336 124.667 293.147 125.388 292.427 126.772C291.789 127.987 291.805 129.104 291.822 130.796C291.843 132.744 292.203 134.702 292.89 136.617C293.021 136.98 292.83 137.382 292.465 137.512C292.389 137.539 292.307 137.555 292.231 137.555L292.225 137.55Z" fill="#de786b"/>
<path d="M252.011 116.173C251.542 116.173 251.035 116.118 250.501 115.988C248.592 115.511 247.425 114.312 246.896 113.634C246.656 113.33 246.71 112.891 247.016 112.652C247.321 112.414 247.763 112.468 248.003 112.772C248.423 113.303 249.344 114.252 250.844 114.627C252.344 115.001 253.522 114.572 254.296 114.29C254.411 114.247 254.503 114.214 254.58 114.176C254.258 113.965 253.663 113.688 252.807 113.352C251.384 112.788 249.841 112.403 248.221 112.213C247.834 112.169 247.561 111.822 247.605 111.437C247.648 111.052 247.997 110.775 248.385 110.824C250.124 111.03 251.793 111.443 253.331 112.056C254.983 112.712 256.336 113.341 256.205 114.388C256.128 115.028 255.441 115.359 254.776 115.598C254.182 115.815 253.216 116.167 252.006 116.167L252.011 116.173Z" fill="#de786b"/>
<path d="M243.679 115.191C243.379 115.191 243.101 115.001 243.009 114.702C242.894 114.334 243.096 113.943 243.467 113.829C244.808 113.412 245.997 112.728 247 111.806C247.529 111.318 248.004 110.764 248.407 110.157C248.62 109.837 249.056 109.745 249.378 109.956C249.7 110.168 249.793 110.602 249.58 110.922C249.116 111.621 248.571 112.262 247.96 112.826C246.804 113.889 245.435 114.675 243.892 115.158C243.821 115.18 243.75 115.191 243.679 115.191Z" fill="#de786b"/>
<path d="M242.147 107.732C241.978 107.732 241.814 107.7 241.656 107.64C240.958 107.369 240.609 106.582 240.882 105.888C241.155 105.194 241.945 104.846 242.643 105.118C243.341 105.389 243.69 106.175 243.418 106.87C243.287 107.206 243.031 107.472 242.698 107.618C242.523 107.694 242.338 107.732 242.153 107.732H242.147ZM242.103 106.365C242.093 106.387 242.103 106.414 242.131 106.42C242.147 106.425 242.18 106.414 242.185 106.392L242.103 106.36V106.365ZM242.103 106.365L242.185 106.398C242.185 106.398 242.185 106.349 242.158 106.344C242.136 106.338 242.109 106.349 242.103 106.371V106.365Z" fill="#de786b"/>
<path d="M257.52 125.443C257.068 125.443 256.653 125.367 256.451 125.323C255.753 125.172 255.061 124.971 254.396 124.721C253.474 124.385 252.585 123.951 251.745 123.447C248.691 121.608 247.104 120.235 244.47 117.968C244.176 117.713 244.143 117.274 244.399 116.981C244.656 116.688 245.098 116.655 245.392 116.91C248.059 119.205 249.526 120.474 252.476 122.253C253.239 122.714 254.052 123.105 254.886 123.414C255.492 123.636 256.124 123.821 256.757 123.962C257.15 124.049 257.537 124.06 257.771 124.032C257.608 123.702 257.122 123.04 256.026 121.998C255.748 121.733 255.737 121.288 256.004 121.011C256.272 120.734 256.719 120.724 256.997 120.989C259.467 123.338 259.44 124.239 259.085 124.808C258.769 125.313 258.12 125.448 257.531 125.448L257.52 125.443Z" fill="#de786b"/>
<path d="M273.689 128.643C273.689 128.643 273.667 128.643 273.656 128.643C271.677 128.545 269.752 128.111 267.936 127.347C265.694 126.403 263.644 124.938 262.002 123.116C261.746 122.828 261.768 122.389 262.057 122.128C262.346 121.868 262.788 121.895 263.049 122.183C264.555 123.853 266.436 125.193 268.487 126.061C269.943 126.674 271.475 127.059 273.056 127.2C273.078 126.663 273.046 125.909 272.762 125.296C272.658 125.074 272.506 124.743 272.184 124.423C272.086 124.331 272.009 124.271 271.835 124.135L271.688 124.022C271.273 123.701 270.941 123.43 270.722 123.251C270.422 123.007 270.379 122.568 270.624 122.269C270.87 121.971 271.311 121.928 271.611 122.172C271.824 122.345 272.151 122.611 272.555 122.92L272.697 123.034C272.936 123.219 273.035 123.3 273.166 123.425C273.678 123.924 273.924 124.461 274.044 124.716C274.638 126.012 274.458 127.596 274.387 128.052C274.333 128.394 274.038 128.643 273.695 128.643H273.689Z" fill="#de786b"/>
<path d="M277.375 116.352C277.326 116.352 277.277 116.352 277.228 116.335C276.628 116.211 275.99 116.037 275.292 115.815C274.921 115.695 274.719 115.305 274.839 114.936C274.959 114.567 275.352 114.366 275.723 114.486C276.377 114.692 276.966 114.854 277.522 114.968C277.904 115.05 278.144 115.419 278.062 115.798C277.991 116.129 277.702 116.352 277.375 116.352Z" fill="#de786b"/>
<path d="M279.339 116.677C278.695 116.677 277.97 116.563 277.174 116.324C276.803 116.216 276.59 115.825 276.705 115.457C276.814 115.088 277.207 114.876 277.577 114.99C279.312 115.505 280.364 115.272 280.609 114.838C280.839 114.437 280.517 113.498 279.284 112.397C278.995 112.137 278.973 111.697 279.23 111.41C279.492 111.123 279.933 111.101 280.222 111.356C281.869 112.831 282.475 114.388 281.831 115.522C281.4 116.281 280.517 116.677 279.339 116.677Z" fill="#de786b"/>
<path d="M278.019 111.47C277.894 111.47 277.769 111.437 277.654 111.367C276.285 110.537 274.867 109.761 273.433 109.061C268.323 106.571 262.794 104.912 256.986 104.136C256.604 104.087 256.331 103.735 256.386 103.349C256.44 102.97 256.789 102.699 257.177 102.753C263.132 103.55 268.809 105.253 274.055 107.808C275.527 108.524 276.989 109.322 278.39 110.179C278.723 110.379 278.827 110.808 278.625 111.139C278.494 111.356 278.259 111.475 278.025 111.475L278.019 111.47Z" fill="#de786b"/>
<path d="M247.981 104.581C247.659 104.581 247.37 104.364 247.299 104.038C247.212 103.664 247.452 103.29 247.828 103.203C248.962 102.948 250.129 102.758 251.286 102.65C252.393 102.547 253.516 102.509 254.634 102.547C254.896 102.552 255.114 102.563 255.272 102.574C255.659 102.595 255.954 102.921 255.937 103.306C255.921 103.691 255.583 103.984 255.201 103.968C255.054 103.962 254.847 103.952 254.596 103.941C253.538 103.908 252.469 103.941 251.422 104.044C250.32 104.147 249.219 104.32 248.144 104.564C248.09 104.575 248.041 104.581 247.986 104.581H247.981Z" fill="#de786b"/>
<path d="M259.112 105.085C258.96 105.085 258.812 104.993 258.752 104.841C258.676 104.64 258.774 104.418 258.976 104.342C259.074 104.304 259.216 104.255 259.385 104.201C260.029 103.995 260.705 103.876 261.392 103.848C261.921 103.827 262.461 103.854 262.99 103.941C263.202 103.973 263.344 104.174 263.311 104.38C263.279 104.592 263.077 104.727 262.87 104.7C262.395 104.624 261.91 104.597 261.435 104.619C260.819 104.646 260.208 104.754 259.63 104.939C259.478 104.988 259.352 105.036 259.265 105.069C259.221 105.085 259.172 105.096 259.129 105.096L259.112 105.085Z" fill="#de786b"/>
<path d="M262.58 106.246C262.4 106.246 262.242 106.121 262.204 105.942C262.16 105.736 262.291 105.53 262.498 105.487C262.591 105.465 262.733 105.438 262.902 105.405C263.534 105.286 264.194 105.204 264.865 105.161C265.383 105.129 265.901 105.118 266.408 105.134C266.621 105.139 266.79 105.318 266.785 105.53C266.779 105.741 266.588 105.893 266.386 105.904C265.901 105.888 265.41 105.899 264.914 105.926C264.281 105.964 263.649 106.045 263.049 106.159C262.891 106.192 262.754 106.219 262.667 106.235C262.64 106.241 262.613 106.246 262.585 106.246H262.58Z" fill="#de786b"/>
<path d="M266.906 107.852C266.737 107.852 266.584 107.743 266.535 107.575C266.475 107.369 266.595 107.157 266.797 107.098C266.895 107.071 267.031 107.033 267.206 106.989C267.844 106.832 268.509 106.734 269.185 106.702C269.709 106.675 270.238 106.68 270.75 106.729C270.963 106.745 271.121 106.935 271.1 107.147C271.078 107.358 270.887 107.515 270.68 107.494C270.2 107.45 269.709 107.445 269.224 107.472C268.596 107.505 267.975 107.597 267.386 107.743C267.228 107.781 267.097 107.819 267.009 107.841C266.971 107.852 266.939 107.857 266.9 107.857L266.906 107.852Z" fill="#de786b"/>
<path d="M270.069 124.868C270.009 124.868 269.943 124.851 269.883 124.819L267.118 123.338C266.933 123.235 266.862 123.002 266.96 122.817C267.064 122.633 267.298 122.562 267.484 122.66L270.249 124.141C270.434 124.244 270.505 124.477 270.407 124.661C270.336 124.792 270.205 124.862 270.069 124.862V124.868Z" fill="#de786b"/>
<path d="M289.132 131.231C288.958 131.231 288.783 131.155 288.669 131.003C287.998 130.124 287.469 129.153 287.109 128.122C286.624 126.75 286.171 125.448 286.765 124.19C287.376 122.904 288.707 122.432 290.119 121.939C291.275 121.532 292.492 121.326 293.729 121.32C294.051 121.32 294.308 121.575 294.308 121.895C294.308 122.215 294.051 122.47 293.729 122.476C292.622 122.476 291.537 122.666 290.507 123.029C289.225 123.479 288.216 123.832 287.813 124.683C287.42 125.519 287.763 126.501 288.2 127.748C288.521 128.665 288.99 129.527 289.59 130.314C289.787 130.569 289.732 130.927 289.481 131.122C289.378 131.203 289.252 131.241 289.132 131.241V131.231Z" fill="#de786b"/>
<path d="M159.365 61.5173C159.119 61.5173 158.874 61.398 158.727 61.181C158.301 60.5681 158.072 59.9226 158.04 59.2608C157.871 55.9628 162.566 53.6304 165.991 51.9271C169.574 50.1479 173.456 48.8461 177.525 48.0596C177.944 47.9782 178.348 48.2494 178.43 48.6671C178.512 49.0848 178.239 49.4862 177.819 49.5675C173.887 50.3269 170.135 51.5854 166.683 53.2995C163.984 54.6447 159.468 56.8904 159.583 59.1849C159.599 59.5537 159.741 59.9334 160.003 60.3131C160.243 60.6657 160.156 61.143 159.801 61.3817C159.67 61.4739 159.517 61.5173 159.365 61.5173Z" fill="#de786b"/>
<path d="M172.627 70.3317C172.551 70.3317 172.475 70.3208 172.404 70.2991C170.588 69.7513 168.794 69.1112 167.07 68.4061C166.318 68.0969 165.287 67.6738 163.962 67.0066C162.751 66.3991 161.568 65.721 160.433 64.9942C160.39 64.967 160.352 64.9345 160.313 64.9019C160.259 64.8477 160.166 64.7663 160.057 64.6687C158.819 63.573 157.636 62.4122 157.919 61.3436C157.996 61.0507 158.258 60.5299 159.13 60.3455C159.545 60.2587 159.959 60.5191 160.046 60.9368C160.134 61.3382 159.883 61.7341 159.49 61.8372C159.637 62.1084 160.057 62.602 161.082 63.5187C161.181 63.6055 161.262 63.6815 161.328 63.7357C162.397 64.4192 163.515 65.0538 164.654 65.6288C165.925 66.2689 166.923 66.6811 167.654 66.9795C169.328 67.6683 171.078 68.2867 172.845 68.8237C173.254 68.9485 173.483 69.377 173.358 69.7838C173.254 70.1147 172.949 70.3317 172.616 70.3317H172.627Z" fill="#de786b"/>
<path d="M181.151 70.8851C178.556 70.8851 175.943 70.7766 173.353 70.5597C172.928 70.5217 172.611 70.1528 172.65 69.7297C172.682 69.3066 173.059 68.992 173.484 69.03C176.892 69.3175 180.333 69.4097 183.72 69.3121C183.791 69.3121 191.469 69.0354 197.85 67.7065C199.824 67.2942 201.809 66.7409 203.739 66.0629C204.601 65.7591 205.065 65.5693 207.017 64.7665L209.384 63.7955C210.044 63.5243 210.632 63.2748 211.178 63.047C212.885 62.3256 214.117 61.8102 215.584 61.4251C217.58 60.9044 219.691 60.6711 221.872 60.72C222.297 60.7308 222.635 61.0834 222.625 61.5065C222.614 61.9296 222.243 62.255 221.834 62.255C219.8 62.2062 217.831 62.4286 215.977 62.9114C214.619 63.264 213.43 63.7684 211.783 64.4573C211.238 64.6906 210.643 64.9401 209.978 65.2113L207.611 66.1822C205.681 66.9796 205.163 67.1912 204.257 67.5058C202.262 68.2055 200.211 68.7805 198.166 69.2036C191.649 70.5597 183.845 70.8363 183.764 70.8417C182.897 70.8689 182.024 70.8797 181.146 70.8797L181.151 70.8851Z" fill="#de786b"/>
<path d="M222.82 55.1872C222.82 55.1872 222.799 55.1872 222.788 55.1872C222.242 55.1655 221.697 55.1166 221.163 55.0353C219.886 54.8509 218.927 54.5417 218.518 54.4061L218.398 54.3681C214.051 53.0337 209.607 51.8783 205.179 50.9237C201.105 50.0449 197.882 49.356 193.639 48.9655C189.162 48.5586 184.592 48.5858 180.066 49.0523C179.64 49.1011 179.259 48.7919 179.215 48.3688C179.171 47.9457 179.477 47.566 179.902 47.5226C184.527 47.0453 189.195 47.0181 193.776 47.4304C198.111 47.8264 201.372 48.5261 205.5 49.4157C209.972 50.3758 214.466 51.5475 218.85 52.8927L218.992 52.9361C219.363 53.0554 220.236 53.3375 221.381 53.5056C221.839 53.5707 222.302 53.6195 222.766 53.6358C223.513 53.5056 224.255 53.3212 224.975 53.0825C225.836 52.795 226.452 52.5076 226.687 52.3991C229.005 51.3196 234.354 49.3343 238.99 47.9999C241.602 47.246 243.598 46.8066 246.085 46.7741C246.837 46.7632 247.595 46.7903 248.337 46.8554C248.762 46.8934 249.078 47.2677 249.04 47.6908C249.002 48.1139 248.631 48.4285 248.201 48.3905C247.508 48.3308 246.804 48.3091 246.101 48.3146C243.794 48.3471 241.902 48.7648 239.415 49.4808C234.371 50.9345 229.239 52.909 227.358 53.7823C227.08 53.9125 226.403 54.2271 225.454 54.5417C224.631 54.8129 223.786 55.0244 222.935 55.1709C222.891 55.1763 222.848 55.1817 222.804 55.1817L222.82 55.1872Z" fill="#de786b"/>
<path d="M245.452 73.1145C245.349 73.1145 245.239 73.0928 245.141 73.0494L234.3 68.276C232.326 67.2887 230.395 66.2256 228.53 65.1136C227.129 64.2728 225.733 63.3832 224.386 62.472C224.031 62.2333 223.944 61.7559 224.184 61.4034C224.424 61.0508 224.904 60.9586 225.258 61.2027C226.583 62.0977 227.952 62.971 229.332 63.7955C231.164 64.8912 233.057 65.9327 234.965 66.8873L245.768 71.6445C246.161 71.8181 246.336 72.2683 246.161 72.6588C246.036 72.9463 245.752 73.1145 245.452 73.1145Z" fill="#de786b"/>
<path d="M245.451 73.1145C245.233 73.1145 245.015 73.0223 244.862 72.8433C242.894 70.5217 241.361 67.9614 240.309 65.233C239.425 62.9493 238.733 61.1485 239.022 58.8106C239.354 56.1635 240.756 54.3898 242.528 52.1441L242.681 51.9488C244.142 50.0991 245.866 48.4393 247.818 47.0127C248.162 46.7632 248.647 46.8337 248.898 47.1754C249.149 47.5172 249.078 47.9999 248.734 48.2494C246.896 49.5947 245.271 51.1569 243.897 52.8981L243.744 53.0934C242.054 55.2305 240.832 56.7765 240.554 59.0004C240.309 60.9532 240.881 62.434 241.748 64.6797C242.741 67.2508 244.186 69.6646 246.046 71.8506C246.318 72.1761 246.28 72.6589 245.953 72.9355C245.806 73.0548 245.631 73.1145 245.457 73.1145H245.451Z" fill="#de786b"/>
<path d="M179.477 65.0648C177.274 65.0648 175.573 64.2403 174.695 63.7033C174.329 63.4809 174.22 63.009 174.444 62.6455C174.668 62.2821 175.142 62.1682 175.507 62.396C176.342 62.9059 178.07 63.725 180.279 63.4809C182.493 63.2368 183.856 62.076 184.762 61.3112C185.051 61.0671 185.225 60.8881 185.329 60.7687C184.964 60.6277 184.113 60.4867 182.22 60.4378C180.055 60.389 177.82 60.6331 175.584 61.1756C175.169 61.2786 174.749 61.0237 174.651 60.6114C174.548 60.1992 174.804 59.7815 175.218 59.6839C177.585 59.1089 179.957 58.8485 182.259 58.9028C184.571 58.957 186.67 59.1143 186.981 60.4107C187.129 61.0291 186.779 61.6312 185.771 62.4882C184.789 63.3236 183.142 64.7176 180.454 65.016C180.121 65.0539 179.794 65.0702 179.483 65.0702L179.477 65.0648Z" fill="#de786b"/>
<path d="M170.779 67.3374C170.55 67.3374 170.321 67.2344 170.169 67.0391C169.907 66.7028 169.967 66.22 170.305 65.9596C171.886 64.7392 173.13 63.2475 174.008 61.5226C174.471 60.6113 174.826 59.6349 175.06 58.6314C175.158 58.2191 175.573 57.9588 175.987 58.0564C176.402 58.1541 176.664 58.5663 176.565 58.9786C176.304 60.1068 175.906 61.1971 175.388 62.2169C174.411 64.1479 173.021 65.8132 171.254 67.1747C171.112 67.2832 170.948 67.3374 170.779 67.3374Z" fill="#de786b"/>
<path d="M164.79 58.3495C164.79 58.3495 164.774 58.3495 164.763 58.3495C163.83 58.3386 163.078 57.5684 163.094 56.6408C163.105 55.7187 163.863 54.981 164.79 54.981C164.795 54.981 164.806 54.981 164.812 54.981C165.744 54.9918 166.497 55.7621 166.481 56.6896C166.47 57.6118 165.712 58.3495 164.785 58.3495H164.79ZM164.79 56.516C164.708 56.516 164.643 56.5811 164.643 56.6625C164.643 56.7113 164.665 56.7493 164.686 56.7656C164.708 56.7873 164.741 56.809 164.79 56.809C164.866 56.809 164.937 56.7439 164.943 56.6625C164.943 56.5811 164.877 56.516 164.795 56.5106L164.79 56.516Z" fill="#de786b"/>
<path d="M189.833 74.5789C188.48 74.5789 187.122 74.4487 185.792 74.1992C180.9 73.2662 178.152 72.2464 173.593 70.5486C173.194 70.4021 172.993 69.9573 173.14 69.5614C173.293 69.1654 173.734 68.9647 174.132 69.1112C178.768 70.8361 181.32 71.7853 186.081 72.6912C187.313 72.9244 188.578 73.0438 189.827 73.0438H189.849C190.765 73.0438 191.692 72.9787 192.603 72.8485C193.372 72.74 194.032 72.4742 194.266 72.2952C194.043 72.0023 193.154 71.27 190.733 70.234C190.34 70.0658 190.16 69.6156 190.329 69.2251C190.498 68.8345 190.951 68.6555 191.343 68.8237C195.624 70.6517 195.995 71.7962 195.837 72.5881C195.57 73.9225 193.274 74.3131 192.821 74.3782C191.84 74.5138 190.842 74.5843 189.855 74.5897H189.827L189.833 74.5789Z" fill="#de786b"/>
<path d="M209.972 71.4709C209.623 71.4709 209.274 71.4655 208.925 71.4492C205.549 71.2973 202.168 70.3806 199.153 68.8021C198.776 68.6069 198.629 68.1404 198.831 67.7661C199.027 67.3918 199.496 67.2454 199.872 67.4461C202.692 68.9215 205.849 69.7731 208.996 69.9195C211.303 70.0226 213.599 69.7568 215.829 69.133C215.605 68.3899 215.164 67.2508 214.395 66.4805C214.155 66.2419 213.762 65.8459 213.141 65.5747C212.977 65.5042 212.852 65.4608 212.513 65.3577L212.273 65.2818C211.575 65.0594 211.008 64.8695 210.632 64.7393C210.228 64.6037 210.016 64.1644 210.152 63.763C210.294 63.3616 210.73 63.15 211.134 63.2856C211.505 63.4104 212.055 63.6002 212.742 63.8172L212.982 63.8931C213.348 64.0071 213.528 64.0667 213.773 64.1698C214.657 64.5603 215.202 65.1028 215.491 65.3903C216.871 66.768 217.394 68.8835 217.52 69.4965C217.601 69.8816 217.372 70.2667 216.996 70.386C214.711 71.1075 212.35 71.4763 209.978 71.4763L209.972 71.4709Z" fill="#de786b"/>
<path d="M212.873 52.7516C212.464 52.7516 212.12 52.4315 212.099 52.0193C212.077 51.5962 212.41 51.2382 212.835 51.2165C213.8 51.1731 214.656 51.0917 215.453 50.9778C215.872 50.9127 216.271 51.2056 216.331 51.6233C216.396 52.041 216.101 52.4369 215.682 52.4966C214.836 52.6214 213.926 52.7082 212.906 52.7516C212.895 52.7516 212.884 52.7516 212.868 52.7516H212.873Z" fill="#de786b"/>
<path d="M215.567 52.5021C215.164 52.5021 214.826 52.1875 214.798 51.7807C214.771 51.3576 215.093 50.9887 215.518 50.9616C218.174 50.7935 219.488 49.9147 219.614 49.1174C219.723 48.4285 218.987 47.2894 216.544 46.3293C216.145 46.1719 215.955 45.7272 216.107 45.3312C216.265 44.9352 216.713 44.7399 217.111 44.8972C219.897 45.9929 221.403 47.6636 221.135 49.356C220.857 51.1189 218.79 52.2906 215.611 52.4967C215.595 52.4967 215.578 52.4967 215.562 52.4967L215.567 52.5021Z" fill="#de786b"/>
<path d="M182.945 46.3346C182.591 46.3346 182.274 46.0905 182.192 45.7379C182.1 45.3256 182.362 44.9134 182.776 44.8212C190.962 42.9823 199.223 42.4616 207.338 43.2698C209.618 43.4977 211.913 43.834 214.171 44.2679C214.591 44.3493 214.864 44.7507 214.782 45.1683C214.7 45.586 214.297 45.8572 213.877 45.7759C211.668 45.3473 209.421 45.0165 207.185 44.7941C199.24 44.0021 191.142 44.512 183.12 46.3183C183.06 46.3291 183.005 46.34 182.951 46.34L182.945 46.3346Z" fill="#de786b"/>
<path d="M171.225 51.325C170.975 51.325 170.724 51.2002 170.576 50.9778C170.342 50.6252 170.44 50.1479 170.8 49.9146C172.158 49.0305 173.587 48.2277 175.043 47.528C176.439 46.8553 177.889 46.2695 179.362 45.7759C179.705 45.662 180 45.5698 180.207 45.5047C180.611 45.3745 181.047 45.6023 181.172 46.0091C181.298 46.416 181.074 46.8445 180.665 46.9692C180.469 47.0289 180.191 47.1211 179.858 47.2296C178.446 47.7015 177.055 48.2711 175.719 48.9111C174.318 49.5838 172.949 50.354 171.651 51.2002C171.52 51.287 171.373 51.325 171.231 51.325H171.225Z" fill="#de786b"/>
<path d="M186.043 47.3759C185.885 47.3759 185.722 47.3108 185.607 47.1807C185.394 46.942 185.416 46.5786 185.656 46.367C185.765 46.2694 185.923 46.1338 186.125 45.9765C186.872 45.3906 187.701 44.9079 188.59 44.5336C189.277 44.2461 189.997 44.0237 190.739 43.8772C191.05 43.8122 191.355 44.0183 191.42 44.3329C191.48 44.6475 191.279 44.9458 190.962 45.0109C190.303 45.1411 189.659 45.3364 189.043 45.5968C188.247 45.9331 187.505 46.367 186.84 46.8877C186.66 47.0288 186.518 47.1481 186.42 47.2349C186.311 47.3325 186.174 47.3814 186.038 47.3814L186.043 47.3759Z" fill="#de786b"/>
<path d="M191.354 46.6436C191.164 46.6436 190.978 46.5514 190.864 46.3778C190.689 46.1121 190.771 45.754 191.038 45.5805C191.153 45.5045 191.322 45.4015 191.529 45.2767C192.303 44.8102 193.127 44.3817 193.988 44.002C194.648 43.7091 195.33 43.4433 196.006 43.2209C196.312 43.1178 196.639 43.2806 196.742 43.5843C196.846 43.8881 196.682 44.2135 196.377 44.3166C195.733 44.5281 195.09 44.7831 194.463 45.0597C193.65 45.4232 192.865 45.8246 192.134 46.2694C191.938 46.3887 191.78 46.4863 191.671 46.5568C191.573 46.6165 191.463 46.6491 191.36 46.6491L191.354 46.6436Z" fill="#de786b"/>
<path d="M197.817 46.6546C197.637 46.6546 197.463 46.5732 197.348 46.4214C197.158 46.1664 197.212 45.803 197.468 45.6131C197.583 45.5318 197.747 45.4124 197.948 45.2714C198.712 44.7561 199.541 44.3059 200.413 43.9262C201.089 43.6333 201.787 43.3892 202.486 43.1993C202.796 43.1179 203.113 43.2969 203.2 43.6007C203.287 43.9099 203.102 44.2245 202.796 44.3113C202.147 44.4903 201.504 44.7181 200.882 44.9839C200.075 45.3311 199.312 45.7542 198.608 46.2261C198.417 46.3508 198.27 46.4647 198.166 46.5407C198.063 46.6166 197.943 46.6546 197.823 46.6546H197.817Z" fill="#de786b"/>
<path d="M210.31 67.4459C210.31 67.4459 210.255 67.4459 210.228 67.4405L205.871 66.8384C205.555 66.795 205.331 66.5021 205.375 66.1875C205.418 65.8729 205.713 65.6505 206.029 65.6939L210.386 66.296C210.703 66.3394 210.926 66.6323 210.883 66.9469C210.844 67.2344 210.593 67.4459 210.31 67.4459Z" fill="#de786b"/>
<path d="M238.352 66.2851C238.248 66.2851 238.139 66.258 238.041 66.1929C236.749 65.3738 235.598 64.3758 234.633 63.2149C233.357 61.6799 232.151 60.2316 232.304 58.3873C232.462 56.4996 233.951 55.2683 235.522 53.9611C236.82 52.8816 238.287 52.0354 239.884 51.4388C240.184 51.3249 240.517 51.4767 240.631 51.7751C240.746 52.0734 240.593 52.4043 240.293 52.5182C238.815 53.0715 237.463 53.8526 236.263 54.8452C234.764 56.0928 233.58 57.0746 233.46 58.4795C233.346 59.8573 234.306 61.0127 235.522 62.4772C236.411 63.5458 237.463 64.4625 238.657 65.2165C238.93 65.3847 239.006 65.7427 238.837 66.0139C238.728 66.1875 238.537 66.2797 238.346 66.2797L238.352 66.2851Z" fill="#de786b"/>
<path d="M66.4065 78.1536C66.1229 78.1536 65.8557 77.98 65.7521 77.7034C65.5503 77.1826 65.5012 76.6673 65.5939 76.1737C66.0575 73.7599 69.7658 72.9191 72.4706 72.3007C75.2737 71.6607 78.2022 71.4112 81.1743 71.5468C81.5615 71.563 81.8614 71.8939 81.845 72.2791C81.8287 72.6642 81.5015 72.9517 81.1088 72.9462C78.2621 72.8106 75.4646 73.0547 72.7869 73.6623C70.7201 74.1342 67.2627 74.9207 66.9736 76.4341C66.93 76.6673 66.9627 76.9277 67.0663 77.2043C67.2027 77.5623 67.0227 77.9692 66.6573 78.1048C66.5755 78.1373 66.4937 78.1482 66.4065 78.1482V78.1536Z" fill="#de786b"/>
<path d="M74.1174 86.4963C73.9974 86.4963 73.872 86.4637 73.7629 86.3986C72.5904 85.7097 71.4507 84.9612 70.3709 84.1801C69.9019 83.8384 69.253 83.3719 68.4404 82.6776C67.6987 82.0483 66.9898 81.3757 66.3245 80.6814C66.2918 80.6489 66.2645 80.6109 66.2372 80.5729C66.21 80.5295 66.1609 80.459 66.1009 80.3776C65.4029 79.3687 64.7539 78.3218 65.1738 77.557C65.2938 77.3346 65.5992 76.9657 66.319 76.9929C66.7062 77.0037 67.0116 77.3237 67.0007 77.7089C66.9898 78.0126 66.788 78.2676 66.5099 78.3544C66.6026 78.5822 66.8153 78.9565 67.2516 79.5857C67.3006 79.6562 67.3443 79.7213 67.377 79.7701C67.9932 80.4156 68.6585 81.0394 69.3457 81.6198C70.12 82.2762 70.7363 82.7264 71.1889 83.0518C72.2305 83.8058 73.3321 84.5272 74.4664 85.1944C74.7991 85.3897 74.9081 85.8182 74.7118 86.1491C74.5809 86.3715 74.3464 86.4908 74.1065 86.4908L74.1174 86.4963Z" fill="#de786b"/>
<path d="M92.9701 90.0112C92.6102 90.0112 92.2557 90.0058 91.9012 89.995C87.135 89.8431 81.8288 88.7582 81.6052 88.7094C79.1894 88.1995 76.7735 87.5432 74.4068 86.7566C74.0414 86.6319 73.8396 86.2413 73.965 85.8725C74.0905 85.509 74.4831 85.3083 74.8539 85.4331C77.1662 86.2034 79.5384 86.8434 81.8943 87.3425C81.9433 87.3533 87.3095 88.449 91.9503 88.6009C93.3846 88.6497 94.8515 88.6009 96.2967 88.449C96.9456 88.3839 97.3001 88.3297 98.7943 88.0964L100.594 87.8198C101.096 87.7439 101.548 87.6679 101.963 87.6028C103.272 87.3913 104.22 87.234 105.311 87.2177C106.794 87.1906 108.321 87.3859 109.837 87.7873C110.214 87.8849 110.432 88.27 110.334 88.6443C110.236 89.0186 109.848 89.2355 109.472 89.1379C108.081 88.7691 106.691 88.5901 105.333 88.6118C104.34 88.628 103.435 88.7745 102.186 88.9806C101.766 89.0511 101.308 89.1216 100.801 89.203L99.007 89.4796C97.5237 89.7075 97.1201 89.7726 96.4385 89.8376C95.2878 89.9516 94.1262 90.0112 92.9756 90.0112H92.9701Z" fill="#de786b"/>
<path d="M112.33 84.4404C112.047 84.4404 111.758 84.4296 111.474 84.4133C111.425 84.4133 111.376 84.4025 111.332 84.3862C110.956 84.2777 110.58 84.1475 110.214 84.0011C109.347 83.6539 108.731 83.2742 108.464 83.1115L108.393 83.0681C105.606 81.4137 102.721 79.8677 99.8146 78.4628C97.137 77.1719 95.0265 76.1521 92.1526 75.1757C89.1205 74.1451 85.9575 73.402 82.7455 72.9626C82.3638 72.9084 82.0911 72.5612 82.1456 72.1761C82.2002 71.7964 82.5492 71.5197 82.9364 71.5794C86.2411 72.0242 89.4913 72.789 92.6107 73.8522C95.561 74.8557 97.7096 75.8917 100.425 77.2044C103.37 78.6256 106.293 80.1932 109.113 81.8639L109.205 81.9181C109.44 82.0646 109.991 82.4009 110.743 82.7047C111.038 82.824 111.343 82.9271 111.648 83.0193C112.177 83.0518 112.712 83.0464 113.235 83.003C113.879 82.9488 114.348 82.8565 114.522 82.8186C116.322 82.4551 120.379 81.9778 123.831 81.8259C125.784 81.7446 127.256 81.7717 129.001 82.1677C129.53 82.287 130.054 82.4389 130.566 82.607C130.932 82.7318 131.128 83.1278 131.008 83.4912C130.883 83.8546 130.484 84.0499 130.119 83.9306C129.656 83.7733 129.176 83.6377 128.69 83.5292C127.098 83.1657 125.729 83.1386 123.891 83.22C120.156 83.3827 116.267 83.8872 114.817 84.1801C114.604 84.2235 114.075 84.332 113.35 84.3916C113.012 84.4187 112.668 84.435 112.33 84.435V84.4404Z" fill="#de786b"/>
<path d="M124.186 100.654C124.038 100.654 123.886 100.605 123.76 100.507L117.047 95.3704C115.836 94.3452 114.675 93.2821 113.568 92.1918C112.739 91.3727 111.915 90.5211 111.13 89.6586C110.868 89.3711 110.89 88.9318 111.179 88.6714C111.468 88.411 111.91 88.4327 112.172 88.7202C112.941 89.5664 113.742 90.3963 114.555 91.1991C115.635 92.2623 116.774 93.3038 117.931 94.2856L124.616 99.4007C124.922 99.6339 124.982 100.073 124.747 100.382C124.611 100.561 124.398 100.654 124.191 100.654H124.186Z" fill="#de786b"/>
<path d="M124.19 100.654C123.934 100.654 123.683 100.513 123.563 100.269C122.582 98.3104 121.949 96.26 121.676 94.1716C121.447 92.4196 121.267 91.0364 121.884 89.4254C122.576 87.6082 123.863 86.5993 125.494 85.3246L125.636 85.2161C126.972 84.1692 128.466 83.3013 130.075 82.6287C130.434 82.4768 130.843 82.645 130.991 83.003C131.138 83.361 130.974 83.7678 130.614 83.9143C129.126 84.5326 127.741 85.3408 126.503 86.3064L126.361 86.4149C124.845 87.6028 123.749 88.4598 123.192 89.9135C122.702 91.1937 122.849 92.3057 123.067 93.9818C123.318 95.9128 123.907 97.8168 124.817 99.6339C124.992 99.9811 124.85 100.399 124.501 100.572C124.403 100.621 124.294 100.648 124.19 100.648V100.654Z" fill="#de786b"/>
<path d="M81.0974 84.1528C80.841 84.1528 80.5738 84.1365 80.3012 84.1039C78.3488 83.8544 77.0455 82.7967 76.4402 82.1892C76.1675 81.9125 76.1675 81.4731 76.4456 81.2019C76.7237 80.9307 77.1655 80.9307 77.4381 81.2074C77.918 81.6901 78.9433 82.5255 80.4811 82.7207C82.0135 82.9214 83.1315 82.3573 83.8731 81.983C83.9822 81.9288 84.0694 81.88 84.1403 81.842C83.7968 81.6684 83.1751 81.4677 82.2862 81.2291C80.8029 80.8331 79.2268 80.6324 77.5963 80.6324C77.2091 80.6324 76.8928 80.3178 76.8928 79.9326C76.8928 79.5475 77.2091 79.2329 77.5963 79.2329C79.3523 79.2329 81.0483 79.4499 82.6516 79.8784C84.3694 80.3395 85.7873 80.8005 85.7818 81.8637C85.7818 82.5038 85.1656 82.8997 84.5057 83.2306C83.8295 83.5669 82.657 84.1582 81.0974 84.1582V84.1528Z" fill="#de786b"/>
<path d="M73.3435 84.1095C73.0763 84.1095 72.82 83.9576 72.7 83.6973C72.5419 83.3447 72.7 82.9324 73.0545 82.7751C74.336 82.2001 75.4376 81.3865 76.3211 80.3559C76.79 79.808 77.1936 79.2005 77.5208 78.555C77.6953 78.2078 78.1152 78.0722 78.4642 78.2458C78.8133 78.4194 78.9496 78.8371 78.7751 79.1842C78.3988 79.9328 77.9298 80.6325 77.3899 81.2672C76.3701 82.4605 75.1049 83.3989 73.6271 84.0553C73.5344 84.0987 73.4362 84.1149 73.338 84.1149L73.3435 84.1095Z" fill="#de786b"/>
<path d="M70.8681 76.8842C70.7536 76.8842 70.6391 76.8679 70.5245 76.8408C69.7992 76.6564 69.3575 75.9132 69.5484 75.1918C69.6411 74.8392 69.8592 74.5463 70.1755 74.3673C70.4918 74.1829 70.8572 74.1341 71.2062 74.2209C71.5607 74.3131 71.8552 74.53 72.0406 74.8447C72.226 75.1538 72.2751 75.5227 72.1878 75.8698C72.0951 76.217 71.877 76.5153 71.5607 76.6943C71.348 76.8191 71.1135 76.8842 70.8736 76.8842H70.8681ZM70.8681 75.4901C70.8681 75.4901 70.8299 75.5064 70.8245 75.5227C70.8245 75.5444 70.8354 75.5715 70.8572 75.5769C70.8845 75.5824 70.9063 75.5661 70.9117 75.5444C70.9172 75.5227 70.9063 75.4956 70.879 75.4901C70.879 75.4901 70.879 75.4901 70.8736 75.4901H70.8681Z" fill="#de786b"/>
<path d="M87.8333 92.7014C87.6097 92.7014 87.4243 92.6852 87.3043 92.6743C86.5954 92.6038 85.881 92.4845 85.1884 92.3163C84.2395 92.0885 83.3015 91.763 82.4072 91.3616C79.1624 89.8916 77.4228 88.7146 74.5379 86.7672C74.2162 86.5503 74.1344 86.1163 74.3525 85.7963C74.5706 85.4763 75.0069 85.3949 75.3287 85.6119C78.2462 87.5809 79.855 88.6658 82.9907 90.0923C83.8032 90.4612 84.6594 90.7541 85.5211 90.9602C86.1482 91.1121 86.7971 91.2206 87.4406 91.2857C87.8387 91.3237 88.2259 91.2911 88.455 91.2423C88.2532 90.9331 87.6915 90.331 86.4809 89.4252C86.17 89.1919 86.11 88.758 86.3391 88.4488C86.5736 88.1396 87.0098 88.0799 87.3207 88.3078C90.0528 90.3473 90.1292 91.2477 89.8456 91.8552C89.5129 92.5713 88.5095 92.7014 87.8278 92.7014H87.8333Z" fill="#de786b"/>
<path d="M103.61 94.0088C102.029 94.0088 100.469 93.7864 98.9475 93.3471C96.608 92.669 94.3994 91.454 92.5561 89.8375C92.2671 89.5826 92.2398 89.1432 92.4961 88.8503C92.7524 88.5628 93.1942 88.5357 93.4886 88.7906C95.1792 90.2715 97.2024 91.3835 99.3456 92.0073C100.867 92.4466 102.438 92.6473 104.019 92.6094C103.981 92.0778 103.856 91.3238 103.507 90.7488C103.381 90.5427 103.19 90.2281 102.825 89.9515C102.716 89.8701 102.634 89.8213 102.443 89.7074L102.285 89.6151C101.838 89.3439 101.472 89.1161 101.232 88.9642C100.905 88.7581 100.813 88.3242 101.02 87.9987C101.227 87.6732 101.663 87.581 101.99 87.7871C102.225 87.939 102.574 88.156 103.016 88.4218L103.168 88.514C103.425 88.6713 103.534 88.7364 103.681 88.8449C104.254 89.2788 104.559 89.7833 104.706 90.0274C105.453 91.2533 105.453 92.8426 105.437 93.2983C105.426 93.6563 105.143 93.9437 104.783 93.9709C104.39 93.998 104.003 94.0088 103.61 94.0088Z" fill="#de786b"/>
<path d="M106.947 81.3321C106.947 81.3321 106.903 81.3321 106.882 81.3321C106.265 81.2779 105.616 81.1802 104.897 81.0446C104.515 80.9687 104.269 80.6053 104.34 80.2255C104.417 79.8458 104.787 79.6018 105.164 79.6723C105.84 79.8025 106.44 79.8892 107.007 79.9435C107.394 79.976 107.678 80.3178 107.645 80.7029C107.612 81.0663 107.307 81.3375 106.947 81.3375V81.3321Z" fill="#de786b"/>
<path d="M108.304 81.4623C107.846 81.4623 107.35 81.4189 106.821 81.3267C106.439 81.2616 106.183 80.8982 106.254 80.5184C106.319 80.1387 106.685 79.8838 107.067 79.9543C108.85 80.2689 109.864 79.9109 110.06 79.4553C110.24 79.0322 109.815 78.1372 108.457 77.1825C108.141 76.9601 108.065 76.5262 108.288 76.2115C108.512 75.8969 108.948 75.821 109.264 76.0434C111.075 77.3181 111.855 78.7935 111.353 79.9923C110.949 80.9524 109.848 81.4677 108.304 81.4677V81.4623Z" fill="#de786b"/>
<path d="M107.007 76.4123C106.908 76.4123 106.81 76.3907 106.712 76.3473C105.256 75.6801 103.756 75.078 102.246 74.5518C96.8797 72.675 91.1863 71.6715 85.3294 71.5739C84.9422 71.5684 84.6313 71.2484 84.6368 70.8633C84.6422 70.4782 84.9749 70.169 85.3512 70.1744C91.3608 70.272 97.2014 71.3026 102.709 73.2283C104.258 73.7707 105.801 74.3891 107.296 75.0725C107.65 75.2353 107.803 75.6475 107.639 76.0001C107.519 76.255 107.268 76.4069 107.001 76.4069L107.007 76.4123Z" fill="#de786b"/>
<path d="M76.3691 73.0709C76.0801 73.0709 75.8074 72.8919 75.7092 72.6045C75.5784 72.241 75.7692 71.8396 76.1346 71.7149C77.2307 71.3243 78.365 71.0097 79.5048 70.7656C80.59 70.5324 81.708 70.3696 82.8205 70.272C83.0822 70.2503 83.3004 70.234 83.453 70.2232C83.8457 70.1961 84.1729 70.489 84.2002 70.8741C84.222 71.2592 83.9329 71.5901 83.5458 71.6172C83.3985 71.6281 83.1913 71.6389 82.9459 71.6606C81.8934 71.7528 80.8354 71.9101 79.8047 72.1325C78.725 72.3604 77.6506 72.6641 76.609 73.033C76.5327 73.0601 76.4509 73.0709 76.3745 73.0709H76.3691Z" fill="#de786b"/>
<path d="M87.5165 72.2735C87.3802 72.2735 87.2438 72.1976 87.1729 72.0674C87.0748 71.8775 87.1457 71.6497 87.3365 71.5466C87.4292 71.4978 87.5601 71.4327 87.7292 71.3568C88.3454 71.0801 88.9998 70.8794 89.6815 70.771C90.205 70.6842 90.7395 70.6571 91.2793 70.6787C91.492 70.6896 91.6556 70.8686 91.6502 71.0801C91.6393 71.2917 91.4648 71.4544 91.2466 71.449C90.7667 71.4273 90.2814 71.4544 89.8069 71.5304C89.1961 71.628 88.6072 71.807 88.0509 72.0565C87.9037 72.1216 87.7837 72.1813 87.7019 72.2247C87.6419 72.2572 87.5819 72.2681 87.522 72.2681L87.5165 72.2735Z" fill="#de786b"/>
<path d="M91.0999 73.0167C90.9418 73.0167 90.7891 72.9191 90.7346 72.7564C90.6637 72.5557 90.7727 72.3387 90.9745 72.2682C91.0672 72.2356 91.2035 72.1922 91.3671 72.138C91.9834 71.9481 92.6269 71.7854 93.2867 71.6661C93.7939 71.5739 94.312 71.5033 94.8191 71.46C95.0264 71.4383 95.2172 71.601 95.2391 71.8125C95.2554 72.0241 95.0973 72.2085 94.8846 72.2302C94.4047 72.2736 93.9139 72.3387 93.4285 72.4255C92.8014 72.5394 92.1852 72.6913 91.6016 72.8703C91.4435 72.9191 91.3181 72.9625 91.2308 72.9896C91.1872 73.0059 91.149 73.0113 91.1054 73.0113L91.0999 73.0167Z" fill="#de786b"/>
<path d="M95.5815 74.1125C95.4288 74.1125 95.287 74.0258 95.227 73.8793C95.1452 73.684 95.2379 73.4562 95.4342 73.3748C95.5269 73.3369 95.6633 73.2826 95.8269 73.223C96.4431 72.9951 97.0921 72.8216 97.7574 72.7022C98.2755 72.6154 98.799 72.5612 99.3171 72.5449C99.5297 72.5449 99.7097 72.7076 99.7152 72.9192C99.7206 73.1307 99.5516 73.3097 99.3389 73.3152C98.859 73.3314 98.3682 73.3803 97.8883 73.4616C97.2666 73.5701 96.6667 73.7328 96.0941 73.9444C95.9414 73.9986 95.816 74.0529 95.7342 74.0854C95.6851 74.1071 95.636 74.118 95.5869 74.118L95.5815 74.1125Z" fill="#de786b"/>
<path d="M100.731 90.6403C100.682 90.6403 100.633 90.6295 100.589 90.6132L97.6659 89.4632C97.4696 89.3873 97.3714 89.1595 97.4478 88.9642C97.5241 88.7689 97.7532 88.6713 97.9495 88.7472L100.873 89.8972C101.069 89.9731 101.167 90.2009 101.091 90.3962C101.031 90.5481 100.883 90.6403 100.731 90.6403Z" fill="#de786b"/>
<path d="M120.384 94.7358C120.231 94.7358 120.078 94.6761 119.964 94.5568C119.189 93.7594 118.557 92.859 118.077 91.8772C117.433 90.5699 116.828 89.3332 117.275 88.0096C117.728 86.659 118.998 86.0406 120.345 85.3843C121.447 84.8473 122.625 84.5001 123.857 84.3482C124.179 84.3102 124.463 84.5326 124.501 84.8527C124.539 85.1673 124.316 85.4548 123.994 85.4927C122.898 85.6229 121.84 85.9375 120.858 86.4149C119.642 87.0115 118.677 87.478 118.377 88.3731C118.082 89.2464 118.54 90.1848 119.124 91.3673C119.549 92.2406 120.116 93.0434 120.804 93.754C121.027 93.9818 121.016 94.3506 120.787 94.5676C120.673 94.6761 120.531 94.7304 120.384 94.7304V94.7358Z" fill="#de786b"/>
<path d="M17.2489 12.7744C17.1398 12.7744 17.0307 12.7472 16.9271 12.6984C14.3968 11.3966 11.7464 10.4582 9.05788 9.90489C6.98014 9.47637 3.51178 8.76036 2.61197 10.0188C2.47564 10.2141 2.39384 10.4636 2.37202 10.7565C2.34476 11.1416 2.00665 11.4291 1.62491 11.4074C1.23772 11.3803 0.943234 11.0494 0.970501 10.6643C1.00867 10.1056 1.17773 9.6174 1.46676 9.21058C2.89555 7.209 6.62022 7.97926 9.34146 8.53796C12.1554 9.11836 14.9203 10.1002 17.5706 11.4617C17.9142 11.6407 18.0505 12.0583 17.8706 12.4001C17.7451 12.6387 17.4997 12.7798 17.2489 12.7798V12.7744Z" fill="#de786b"/>
<path d="M5.19135 22.1856C4.96776 22.1856 4.74963 22.0826 4.61329 21.8873C3.83346 20.7753 3.11361 19.6254 2.4592 18.4646C2.17563 17.9601 1.78298 17.2658 1.3358 16.3003C0.926799 15.4215 0.561422 14.5157 0.245125 13.6044C0.228765 13.561 0.217858 13.5176 0.212405 13.4688C0.206951 13.4145 0.190591 13.3332 0.174231 13.2301C-0.0384515 12.0259 -0.191146 10.8054 0.512341 10.2793C0.714117 10.1274 1.15039 9.92127 1.79389 10.2413C2.14291 10.4095 2.28469 10.8326 2.11564 11.1743C1.9793 11.4455 1.68482 11.5974 1.40124 11.5594C1.39579 11.8035 1.42851 12.2375 1.55939 12.986C1.57575 13.0728 1.58666 13.1487 1.59757 13.2084C1.89205 14.0546 2.23016 14.8954 2.6119 15.709C3.03726 16.6257 3.41355 17.2875 3.68622 17.7757C4.31881 18.8931 5.01684 20.0051 5.76941 21.0845C5.993 21.3991 5.9112 21.8385 5.5949 22.0555C5.47493 22.1422 5.33314 22.1802 5.19681 22.1802L5.19135 22.1856Z" fill="#de786b"/>
<path d="M36.3792 39.3264C36.2211 39.3264 36.0629 39.2721 35.932 39.1636C34.825 38.2524 33.6307 37.5147 32.3928 36.9722C31.4875 36.5762 30.6041 36.3376 29.3771 36.0067C28.9681 35.8928 28.5209 35.7734 28.0246 35.6324L26.2686 35.1388C24.8289 34.732 24.4418 34.6235 23.7873 34.4011C22.3476 33.9129 20.9407 33.3271 19.5991 32.6653C15.3291 30.5553 10.961 27.3658 10.7756 27.2301C8.79597 25.7656 6.87092 24.1654 5.04949 22.473C4.76591 22.2072 4.74955 21.7679 5.01677 21.4858C5.28398 21.2037 5.72571 21.1875 6.00929 21.4533C7.79255 23.1077 9.67397 24.6753 11.6099 26.1073C11.6535 26.1399 16.0708 29.3565 20.2263 31.4123C21.5133 32.0469 22.8603 32.6056 24.24 33.0776C24.8562 33.2837 25.1998 33.3813 26.6449 33.7881L28.4009 34.2818C28.8917 34.4228 29.3334 34.5421 29.7425 34.6506C31.024 34.9978 31.9456 35.2527 32.949 35.6867C34.3124 36.2779 35.6158 37.0861 36.821 38.0788C37.1209 38.3229 37.1591 38.7622 36.9137 39.0606C36.7773 39.2287 36.5755 39.3155 36.3738 39.3155L36.3792 39.3264Z" fill="#de786b"/>
<path d="M57.3648 43.183C57.1903 43.183 57.0212 43.1179 56.8849 42.9931C56.5249 42.6568 56.1487 42.3368 55.756 42.0384C54.4636 41.0512 53.2256 40.46 51.5242 39.7711C48.0558 38.3716 44.3148 37.2216 42.8751 36.8853C42.6624 36.8365 42.1334 36.7118 41.4518 36.4677C40.8628 36.2561 40.2902 36.0012 39.7394 35.7028C39.6958 35.6811 39.6576 35.654 39.6194 35.6215C39.3249 35.3665 39.0359 35.0953 38.7632 34.8078C38.1252 34.1352 37.7162 33.5331 37.5471 33.2727L37.4981 33.2022C35.6603 30.5497 33.6807 27.9406 31.6248 25.4617C29.727 23.1781 28.2382 21.3772 26.0405 19.2997C23.7173 17.1083 21.1542 15.1176 18.4166 13.3926C18.0894 13.1865 17.9913 12.7526 18.1985 12.4271C18.4057 12.1016 18.842 12.004 19.1692 12.2101C21.9832 13.9839 24.6226 16.0288 27.0112 18.2854C29.2689 20.4225 30.7904 22.2505 32.71 24.5667C34.7986 27.0836 36.8 29.7198 38.6596 32.4103L38.7196 32.4971C38.8723 32.7249 39.2322 33.2565 39.7885 33.8477C40.0066 34.081 40.2411 34.3034 40.4811 34.5095C40.9446 34.759 41.4354 34.976 41.9317 35.155C42.537 35.3719 43.0005 35.4804 43.1805 35.5238C44.9692 35.9415 48.8575 37.1837 52.0586 38.4801C53.8691 39.2124 55.1943 39.847 56.6176 40.9319C57.0485 41.2628 57.4629 41.6153 57.8556 41.9788C58.1391 42.2446 58.1501 42.6839 57.8828 42.966C57.7465 43.1124 57.5611 43.183 57.3702 43.183H57.3648Z" fill="#de786b"/>
<path d="M44.7877 55.8001C44.5368 55.8001 44.2914 55.6645 44.166 55.4258L40.2123 47.9782C39.5415 46.5408 38.9308 45.0979 38.38 43.6496C37.9655 42.5647 37.5783 41.4528 37.2293 40.3354C37.1148 39.9665 37.3166 39.5759 37.6874 39.462C38.0582 39.3481 38.4509 39.5488 38.5654 39.9177C38.9089 41.008 39.2907 42.0983 39.6942 43.156C40.2341 44.5717 40.8285 45.9875 41.472 47.3598L45.4094 54.7749C45.5893 55.1166 45.4585 55.5397 45.1149 55.7187C45.0113 55.773 44.8968 55.8001 44.7877 55.8001Z" fill="#de786b"/>
<path d="M44.7825 55.8001C44.4062 55.8001 44.0954 55.5017 44.079 55.122C44.0081 52.936 44.2917 50.8097 44.9188 48.7973C45.4478 47.1103 45.8623 45.7759 47.0947 44.5717C48.4853 43.2048 50.0777 42.8251 52.0955 42.3423L52.27 42.2989C53.9224 41.903 55.6456 41.7294 57.3853 41.7891C57.7725 41.7999 58.0779 42.1254 58.0615 42.5105C58.0506 42.8956 57.7343 43.2048 57.3362 43.1831C55.722 43.1289 54.1296 43.2862 52.5972 43.655L52.4227 43.6984C50.5467 44.1486 49.1943 44.4741 48.0763 45.5698C47.0947 46.5299 46.7621 47.5985 46.2604 49.2149C45.6768 51.0755 45.4151 53.0499 45.486 55.0786C45.4969 55.4638 45.197 55.7892 44.8043 55.8001C44.7989 55.8001 44.7879 55.8001 44.7825 55.8001Z" fill="#de786b"/>
<path d="M15.0996 23.4602C14.178 23.4602 12.8637 23.3355 11.5222 22.5001C9.85345 21.4641 9.11179 19.9615 8.81731 19.1587C8.68642 18.7953 8.87184 18.3939 9.23722 18.2637C9.60259 18.1335 10.0061 18.318 10.137 18.6814C10.3715 19.316 10.955 20.504 12.2693 21.3176C13.5781 22.1313 14.8324 22.0824 15.6613 22.0499C15.7813 22.0499 15.8794 22.0391 15.9612 22.0282C15.7158 21.7299 15.2414 21.2851 14.5325 20.6992C13.3491 19.7229 12.0021 18.8875 10.5188 18.2149C10.1643 18.0522 10.0116 17.6399 10.1752 17.2874C10.3333 16.9348 10.7533 16.7829 11.1077 16.9456C12.7001 17.6725 14.1562 18.5729 15.4323 19.6252C16.8011 20.7535 17.8972 21.7678 17.45 22.7279C17.1774 23.3138 16.4248 23.4168 15.7158 23.444C15.5413 23.4494 15.3341 23.4602 15.1051 23.4602H15.0996Z" fill="#de786b"/>
<path d="M5.57785 19.6903C5.54513 19.6903 5.51786 19.6903 5.48514 19.6903C5.09795 19.6903 4.78711 19.3703 4.78711 18.9852C4.78711 18.6001 5.10341 18.2909 5.4906 18.2909C5.51786 18.2909 5.55058 18.2909 5.57785 18.2909C6.95211 18.2909 8.26637 18.0088 9.48248 17.4447C10.1369 17.1409 10.7586 16.7558 11.3312 16.3056C11.6366 16.0615 12.0783 16.1103 12.3182 16.4141C12.5582 16.7178 12.5146 17.1572 12.2092 17.3959C11.5493 17.922 10.8349 18.3614 10.0769 18.714C8.67538 19.3595 7.16479 19.6903 5.5833 19.6903H5.57785Z" fill="#de786b"/>
<path d="M6.53375 12.156C6.23382 12.156 5.92843 12.0584 5.67757 11.8523C5.39399 11.6244 5.21949 11.299 5.18131 10.941C5.14314 10.583 5.25221 10.2304 5.48125 9.94833C5.71029 9.66626 6.03749 9.49269 6.39742 9.45472C6.75734 9.41675 7.11181 9.51981 7.39539 9.75305C7.67897 9.98087 7.85347 10.3063 7.89165 10.6643C7.92982 11.0223 7.82075 11.3749 7.59171 11.657C7.32449 11.9879 6.93185 12.156 6.53375 12.156ZM6.53375 10.762C6.53375 10.762 6.50649 10.762 6.50103 10.7782C6.49013 10.7945 6.49013 10.8271 6.50649 10.8379C6.52285 10.8542 6.55557 10.8488 6.56647 10.8325C6.57738 10.8162 6.57738 10.7837 6.56102 10.7728C6.55557 10.7674 6.54466 10.762 6.53375 10.762Z" fill="#de786b"/>
<path d="M16.1146 33.7937C15.3893 33.7937 14.5931 33.376 14.2986 33.2024C13.6824 32.8444 13.0879 32.443 12.5262 32.0036C11.7573 31.4015 11.0375 30.7181 10.394 29.9804C8.05991 27.2953 6.96923 25.5107 5.16416 22.5436C4.96238 22.2128 5.07145 21.7842 5.39865 21.5835C5.73131 21.3828 6.16213 21.4913 6.3639 21.8168C8.19079 24.8164 9.19967 26.4708 11.4574 29.0637C12.0409 29.7363 12.6953 30.3547 13.3933 30.9025C13.9005 31.3039 14.4458 31.6673 15.0075 31.9928C15.3565 32.1935 15.7165 32.3237 15.951 32.3725C15.8964 32.0091 15.6401 31.228 14.9148 29.9044C14.7294 29.5681 14.8548 29.1396 15.1984 28.9552C15.5365 28.7708 15.9673 28.8955 16.1527 29.2372C17.7833 32.226 17.4779 33.0722 16.9653 33.5116C16.7253 33.7123 16.4309 33.7882 16.12 33.7882L16.1146 33.7937Z" fill="#de786b"/>
<path d="M29.8955 41.6587C29.8137 41.6587 29.7319 41.6424 29.6501 41.6153C27.796 40.921 26.1 39.9175 24.6112 38.632C22.768 37.0481 21.2683 35.0248 20.2703 32.7954C20.1122 32.4428 20.2703 32.0306 20.6248 31.8733C20.9793 31.716 21.3937 31.8733 21.5519 32.2258C22.468 34.2762 23.8423 36.1259 25.5274 37.5742C26.7217 38.6048 28.0632 39.4348 29.5247 40.0585C29.7101 39.5541 29.9119 38.8272 29.8356 38.1546C29.8083 37.9159 29.7647 37.5525 29.552 37.1457C29.4865 37.0264 29.432 36.9504 29.3066 36.766L29.203 36.6141C28.9085 36.1802 28.674 35.8222 28.5213 35.5835C28.3141 35.258 28.4068 34.8241 28.734 34.618C29.0612 34.4118 29.492 34.504 29.7047 34.8295C29.8519 35.0628 30.081 35.4099 30.37 35.833L30.4736 35.9849C30.6427 36.2344 30.7136 36.3375 30.7954 36.5002C31.1335 37.1348 31.1989 37.7152 31.2316 37.9973C31.3952 39.4131 30.7354 40.8613 30.5281 41.2736C30.4082 41.5177 30.1573 41.6587 29.901 41.6587H29.8955Z" fill="#de786b"/>
<path d="M37.197 31.0924C37.077 31.0924 36.9571 31.0652 36.848 31.0001C36.3136 30.6964 35.7628 30.3384 35.1629 29.9153C34.8466 29.6929 34.7757 29.2535 34.9993 28.9389C35.2229 28.6243 35.6646 28.5538 35.9809 28.7762C36.5371 29.1722 37.0498 29.503 37.546 29.7851C37.8841 29.975 37.9986 30.4035 37.8078 30.7398C37.6769 30.9622 37.4424 31.0924 37.197 31.0924Z" fill="#de786b"/>
<path d="M39.9628 32.1717C39.0576 32.1717 37.9614 31.7648 36.7999 30.9675C36.4781 30.7505 36.4018 30.3111 36.6199 29.9965C36.838 29.6765 37.2798 29.6005 37.5961 29.8175C39.0848 30.8373 40.1591 30.9403 40.5245 30.5986C40.8626 30.284 40.8517 29.2968 40.0174 27.8702C39.821 27.5393 39.9356 27.1108 40.2737 26.9155C40.6063 26.7202 41.0371 26.8341 41.2335 27.1704C42.346 29.0798 42.4387 30.7451 41.4789 31.6238C41.0808 31.9872 40.5627 32.1717 39.9628 32.1717Z" fill="#de786b"/>
<path d="M39.3195 26.6442C39.1232 26.6442 38.9268 26.5629 38.785 26.4001C37.738 25.1905 36.631 24.0189 35.4803 22.9177C31.3902 18.9851 26.6349 15.7197 21.3505 13.2028C21.0015 13.0346 20.8543 12.617 21.0179 12.2698C21.1869 11.9226 21.6014 11.7762 21.9559 11.9389C27.3765 14.5155 32.2573 17.8731 36.4564 21.9088C37.6344 23.0425 38.7796 24.2467 39.8485 25.4889C40.0993 25.7818 40.0666 26.2211 39.7721 26.4761C39.6412 26.59 39.4776 26.6442 39.314 26.6442H39.3195Z" fill="#de786b"/>
<path d="M19.9537 12.541C19.8719 12.541 19.7846 12.5248 19.7028 12.4922C19.5665 12.438 19.3702 12.3675 19.1357 12.2861C18.1377 11.9335 17.1125 11.6406 16.0818 11.4128C15.002 11.1741 13.9004 11.006 12.7988 10.9083C12.4116 10.8758 12.1281 10.534 12.1608 10.1489C12.1935 9.76379 12.5316 9.48173 12.9242 9.51427C14.0858 9.61734 15.2474 9.79634 16.3872 10.0459C17.4724 10.2845 18.5521 10.5937 19.6047 10.968C19.8501 11.0548 20.0573 11.1307 20.2045 11.1904C20.5644 11.326 20.7499 11.7328 20.6081 12.0908C20.499 12.3675 20.2372 12.541 19.9537 12.541Z" fill="#de786b"/>
<path d="M26.9451 15.5734C26.8852 15.5734 26.8252 15.5571 26.7706 15.53C26.3398 15.313 25.8926 15.1395 25.4291 15.0093C24.8347 14.8465 24.2184 14.7652 23.6131 14.7598C23.4495 14.7598 23.3132 14.7598 23.2259 14.7706C23.0023 14.7815 22.8278 14.6187 22.8169 14.4072C22.806 14.1956 22.9696 14.0112 23.1823 14.0003C23.2859 13.9949 23.4386 13.9895 23.6186 13.9895C24.2948 13.9895 24.9765 14.0817 25.6363 14.2661C26.1489 14.4072 26.6507 14.6024 27.1251 14.8411C27.316 14.9388 27.3923 15.172 27.2942 15.3564C27.2233 15.492 27.0924 15.568 26.9506 15.568L26.9451 15.5734Z" fill="#de786b"/>
<path d="M29.8787 17.7809C29.8351 17.7809 29.7914 17.7755 29.7478 17.7592C29.2897 17.5965 28.8207 17.4555 28.3408 17.3307C27.7246 17.1734 27.1029 17.0595 26.4921 16.9781C26.3285 16.9564 26.1976 16.9456 26.1049 16.9347C25.8923 16.913 25.7341 16.7286 25.7559 16.5171C25.7777 16.3055 25.9686 16.1536 26.1758 16.1699C26.274 16.1807 26.4158 16.1916 26.5848 16.2133C27.2229 16.2947 27.8773 16.4194 28.5262 16.5821C29.028 16.7069 29.5242 16.8588 30.0041 17.0324C30.2059 17.1029 30.3095 17.3253 30.2386 17.526C30.1841 17.6833 30.0314 17.7809 29.8732 17.7809H29.8787Z" fill="#de786b"/>
<path d="M33.5053 20.6126C33.4562 20.6126 33.4071 20.6017 33.3526 20.58C32.9054 20.3902 32.4419 20.2383 31.9729 20.1135C31.3621 19.9562 30.7459 19.8532 30.1406 19.8098C29.977 19.7989 29.8461 19.7935 29.7534 19.7881C29.5407 19.7826 29.3716 19.6036 29.3771 19.3921C29.3825 19.1806 29.557 19.0178 29.7752 19.0178C29.8733 19.0178 30.0206 19.0287 30.1951 19.0395C30.8495 19.0883 31.5148 19.1968 32.1692 19.3704C32.6709 19.5006 33.1726 19.6687 33.6525 19.8749C33.8489 19.9562 33.9416 20.184 33.8598 20.3793C33.7998 20.5258 33.6525 20.6126 33.5053 20.6126Z" fill="#de786b"/>
<path d="M27.5182 36.945C27.4145 36.945 27.3164 36.907 27.24 36.8256L25.0641 34.5691C24.9169 34.4173 24.9223 34.1732 25.075 34.0267C25.2277 33.8802 25.4731 33.8857 25.6204 34.0376L27.7963 36.2941C27.9435 36.4459 27.9381 36.69 27.7854 36.8365C27.709 36.907 27.6163 36.945 27.5182 36.945Z" fill="#de786b"/>
<path d="M43.7576 48.8353C43.5176 48.8353 43.2941 48.6888 43.2123 48.4501C42.8414 47.4032 42.6451 46.3238 42.6178 45.2335C42.5851 43.7744 42.5469 42.402 43.5067 41.3823C44.4829 40.3462 45.8953 40.3082 47.395 40.2648C48.622 40.2323 49.8381 40.4059 51.0215 40.7802C51.3269 40.8778 51.496 41.2032 51.3978 41.507C51.2996 41.8108 50.9724 41.9789 50.667 41.8813C49.6145 41.545 48.5184 41.3931 47.4277 41.4202C46.0698 41.4582 45.001 41.4853 44.352 42.1742C43.7194 42.8468 43.7467 43.8883 43.774 45.2064C43.7958 46.1773 43.9757 47.1429 44.3029 48.0704C44.4065 48.3688 44.2484 48.6997 43.9485 48.8027C43.883 48.8244 43.8176 48.8353 43.7576 48.8353Z" fill="#de786b"/>
</g>
<defs>
<clipPath id="clip0_2638_35868">
<rect width="301" height="138" fill="white"/>
</clipPath>
</defs>
</svg>
